#N canvas 627 564 370 296 10;
#X obj 11 9 inlet~;
#X obj 11 134 *~;
#X obj 26 89 line~;
#X obj 73 134 *~;
#X obj 88 89 line~;
#X obj 135 134 *~;
#X obj 150 89 line~;
#X obj 197 134 *~;
#X obj 212 89 line~;
#X obj 11 217 outlet~;
#X obj 73 196 outlet~;
#X obj 135 176 outlet~;
#X obj 197 156 outlet~;
#X msg 212 57 \$1 20;
#X msg 150 56 \$1 20;
#X msg 88 57 \$1 20;
#X msg 26 57 \$1 20;
#X obj 26 31 r vol1-\$1;
#X obj 88 31 r vol2-\$1;
#X obj 150 31 r vol3-\$1;
#X obj 212 31 r vol4-\$1;
#X connect 0 0 1 0;
#X connect 0 0 3 0;
#X connect 0 0 5 0;
#X connect 0 0 7 0;
#X connect 1 0 9 0;
#X connect 2 0 1 1;
#X connect 3 0 10 0;
#X connect 4 0 3 1;
#X connect 5 0 11 0;
#X connect 6 0 5 1;
#X connect 7 0 12 0;
#X connect 8 0 7 1;
#X connect 13 0 8 0;
#X connect 14 0 6 0;
#X connect 15 0 4 0;
#X connect 16 0 2 0;
#X connect 17 0 16 0;
#X connect 18 0 15 0;
#X connect 19 0 14 0;
#X connect 20 0 13 0;
