#N canvas 1428 368 542 561 10;
#X floatatom 268 42 5 0 0 0 - - -;
#X obj 268 -23 tgl 15 0 empty empty empty 17 7 0 10 -262144 -1 -1 0
1;
#X obj 36 287 4amp 1;
#X obj 268 72 4pan 1;
#X obj 379 104 - 33;
#X floatatom 379 129 5 0 0 0 - - -;
#X obj 423 208 - 33;
#X floatatom 379 229 5 0 0 0 - - -;
#X obj 268 19 drunk 34 2;
#X obj 379 155 + 8;
#X obj 423 318 - 33;
#X floatatom 379 339 5 0 0 0 - - -;
#X obj 379 265 + 8;
#X obj 334 78 moses 34;
#X obj 379 176 moses 34;
#X obj 379 286 moses 34;
#X obj 334 54 + 17;
#X obj 268 -4 metro 128;
#X obj 62 4 hsl 128 15 0 33 0 0 empty empty empty -2 -8 0 10 -262144
-1 -1 4700 1;
#X obj 66 41 i;
#X floatatom 82 77 5 0 0 0 - - -;
#X obj 107 157 r vol1-1;
#X obj 137 177 r vol2-1;
#X obj 157 197 r vol3-1;
#X obj 187 217 r vol4-1;
#X floatatom 115 229 5 0 0 0 - - -;
#X obj 255 406 maxlib/scale 25 33 0 1;
#X msg 250 358 25;
#X floatatom 257 454 5 0 0 0 - - -;
#X obj 423 154 4pan 2;
#X obj 419 253 4pan 3;
#X obj 380 369 4pan 4;
#X obj 37 371 master4;
#X obj 79 346 hsl 128 15 0 1 0 0 empty empty empty -2 -8 0 10 -262144
-1 -1 3400 1;
#X obj 37 407 dac~ 1 2 4 3;
#X obj 36 257 osc~ 3200;
#X connect 0 0 3 0;
#X connect 1 0 17 0;
#X connect 2 0 32 0;
#X connect 2 1 32 1;
#X connect 2 2 32 2;
#X connect 2 3 32 3;
#X connect 4 0 5 0;
#X connect 5 0 9 0;
#X connect 5 0 29 0;
#X connect 6 0 7 0;
#X connect 7 0 12 0;
#X connect 7 0 30 0;
#X connect 8 0 0 0;
#X connect 9 0 14 0;
#X connect 10 0 11 0;
#X connect 11 0 31 0;
#X connect 12 0 15 0;
#X connect 13 0 5 0;
#X connect 13 1 4 0;
#X connect 14 0 7 0;
#X connect 14 1 6 0;
#X connect 15 0 11 0;
#X connect 15 1 10 0;
#X connect 16 0 13 0;
#X connect 17 0 8 0;
#X connect 18 0 19 0;
#X connect 19 0 3 0;
#X connect 19 0 20 0;
#X connect 21 0 25 0;
#X connect 26 0 28 0;
#X connect 27 0 26 0;
#X connect 32 0 34 0;
#X connect 32 1 34 1;
#X connect 32 2 34 2;
#X connect 32 3 34 3;
#X connect 33 0 32 4;
#X connect 35 0 2 0;
