#N canvas 639 725 450 300 10;
#X obj 110 45 inlet~;
#X obj 110 112 *~;
#X obj 110 146 outlet~;
#X obj 170 45 inlet~;
#X obj 170 112 *~;
#X obj 170 146 outlet~;
#X obj 230 45 inlet~;
#X obj 230 112 *~;
#X obj 230 146 outlet~;
#X obj 290 45 inlet~;
#X obj 290 112 *~;
#X obj 290 146 outlet~;
#X obj 340 45 inlet;
#X connect 0 0 1 0;
#X connect 1 0 2 0;
#X connect 3 0 4 0;
#X connect 4 0 5 0;
#X connect 6 0 7 0;
#X connect 7 0 8 0;
#X connect 9 0 10 0;
#X connect 10 0 11 0;
#X connect 12 0 10 1;
#X connect 12 0 7 1;
#X connect 12 0 4 1;
#X connect 12 0 1 1;
#X coords 0 -1 1 1 256 16 1 100 100;
