#N canvas 1615 287 472 494 10;
#X obj 154 -52 inlet;
#X obj 154 39 moses 8;
#X obj 193 69 moses 17;
#X obj 238 94 moses 25;
#X obj 283 120 pancalc 25 33;
#X obj 155 366 pancalc 0 7;
#X obj 194 322 pancalc 8 16;
#X obj 238 164 pancalc 17 24;
#X obj 155 388 s vol1-\$1;
#X obj 194 346 s vol2-\$1;
#X obj 238 186 s vol3-\$1;
#X obj 283 144 s vol4-\$1;
#X obj 358 143 s vol1-\$1;
#X obj 313 186 s vol4-\$1;
#X obj 266 292 s vol3-\$1;
#X obj 217 388 s vol2-\$1;
#X obj 76 294 s vol4-\$1;
#X obj 6 295 s vol3-\$1;
#X msg 74 231 0;
#X obj 232 270 s vol4-\$1;
#X msg 230 207 0;
#X obj 162 271 s vol1-\$1;
#X obj 328 261 s vol3-\$1;
#X msg 396 197 0;
#X msg 163 118 0;
#X obj 95 182 s vol1-\$1;
#X obj 165 181 s vol2-\$1;
#X obj 398 260 s vol2-\$1;
#X connect 0 0 1 0;
#X connect 1 0 5 0;
#X connect 1 0 18 0;
#X connect 1 1 2 0;
#X connect 2 0 6 0;
#X connect 2 0 20 0;
#X connect 2 1 3 0;
#X connect 3 0 7 0;
#X connect 3 0 24 0;
#X connect 3 1 4 0;
#X connect 4 0 11 0;
#X connect 4 0 23 0;
#X connect 4 1 12 0;
#X connect 5 0 8 0;
#X connect 5 1 15 0;
#X connect 6 0 9 0;
#X connect 6 1 14 0;
#X connect 7 0 10 0;
#X connect 7 1 13 0;
#X connect 18 0 16 0;
#X connect 18 0 17 0;
#X connect 20 0 19 0;
#X connect 20 0 21 0;
#X connect 23 0 22 0;
#X connect 23 0 27 0;
#X connect 24 0 25 0;
#X connect 24 0 26 0;
