#N canvas 787 135 574 458 10;
#X obj 85 171 int;
#X obj 139 171 int;
#X obj 223 171 int;
#X floatatom 85 196 5 0 0 0 - - -, f 5;
#X floatatom 139 196 5 0 0 0 - - -, f 5;
#X floatatom 223 196 5 0 0 0 - - -, f 5;
#X obj 38 286 print;
#X obj 278 170 int;
#X floatatom 278 195 5 0 0 0 - - -, f 5;
#X obj 85 222 pack \$1 \$2 \$3 \$4;
#X msg 85 247 \$1 \$2 \$3 \$4;
#X text 83 12 SEND TO ARDUINO;
#X obj 85 269 cyclone/spell;
#X obj 19 68 metro 25;
#X obj 358 172 bng 15 250 50 0 empty empty empty 17 7 0 10 -262144
-1 -1;
#X floatatom 86 102 5 0 0 0 - - -, f 5;
#X msg 34 126 1;
#X obj 77 49 r rout;
#X obj 88 331 comport 4 115200;
#X obj 86 121 change;
#X floatatom 85 145 5 0 0 0 - - -, f 5;
#X obj 237 80 r pix;
#X obj 147 73 r lum;
#X obj 28 14 loadbang;
#X obj 23 40 1;
#X msg 216 294 open 4;
#X obj 313 92 r width;
#X msg 265 253 close;
#X connect 0 0 3 0;
#X connect 1 0 4 0;
#X connect 2 0 5 0;
#X connect 3 0 9 0;
#X connect 4 0 9 1;
#X connect 5 0 9 2;
#X connect 7 0 8 0;
#X connect 8 0 9 3;
#X connect 9 0 10 0;
#X connect 10 0 12 0;
#X connect 10 0 6 0;
#X connect 12 0 18 0;
#X connect 13 0 16 0;
#X connect 13 0 20 0;
#X connect 14 0 8 0;
#X connect 15 0 19 0;
#X connect 17 0 15 0;
#X connect 19 0 20 0;
#X connect 20 0 0 0;
#X connect 21 0 2 0;
#X connect 22 0 1 0;
#X connect 23 0 24 0;
#X connect 24 0 13 0;
#X connect 25 0 18 0;
#X connect 26 0 7 0;
#X connect 27 0 18 0;
