#N canvas 421 246 405 289 10;
#X obj 74 25 r color;
#X obj 128 25 r brightness;
#X obj 234 21 r pixel;
#X obj 74 50 int;
#X obj 128 50 int;
#X obj 234 46 int;
#X floatatom 74 75 5 0 0 0 - - -, f 5;
#X floatatom 128 75 5 0 0 0 - - -, f 5;
#X floatatom 234 71 5 0 0 0 - - -, f 5;
#X obj 5 158 print;
#X msg 2 178 devices;
#X obj 289 45 int;
#X floatatom 289 70 5 0 0 0 - - -, f 5;
#X obj 289 20 r delay;
#X obj 74 101 pack \$1 \$2 \$3 \$4;
#X msg 74 126 \$1 \$2 \$3 \$4;
#X text 53 2 SEND TO ARDUINO;
#X obj 258 154 r open;
#X obj 74 148 cyclone/spell;
#X msg 194 161 close;
#X msg 258 178 open 0;
#X obj 77 210 comport 0 115200;
#X obj 231 104 maxlib/scale 0 34 0 127;
#X obj 227 129 i;
#X connect 0 0 3 0;
#X connect 1 0 4 0;
#X connect 2 0 5 0;
#X connect 3 0 6 0;
#X connect 4 0 7 0;
#X connect 5 0 8 0;
#X connect 6 0 14 0;
#X connect 7 0 14 1;
#X connect 8 0 22 0;
#X connect 10 0 21 0;
#X connect 11 0 12 0;
#X connect 12 0 14 3;
#X connect 13 0 11 0;
#X connect 14 0 15 0;
#X connect 15 0 18 0;
#X connect 17 0 20 0;
#X connect 18 0 21 0;
#X connect 19 0 21 0;
#X connect 20 0 21 0;
#X connect 22 0 23 0;
#X connect 23 0 14 2;
