#N canvas 0 95 1366 673 10;
#X obj 265 -631 int;
#X obj 319 -639 int;
#X obj 403 -639 int;
#X floatatom 265 -606 5 0 0 0 - - -, f 5;
#X floatatom 319 -614 5 0 0 0 - - -, f 5;
#X floatatom 403 -614 5 0 0 0 - - -, f 5;
#X obj 206 -435 print;
#X obj 265 -491 cyclone/spell;
#X obj -11 -742 metro 25;
#X floatatom 266 -696 5 0 0 0 - - -, f 5;
#X msg 4 -684 1;
#X obj 257 -761 r rout;
#X obj 268 -429 comport 4 115200;
#X obj 266 -677 change;
#X floatatom 265 -653 5 0 0 0 - - -, f 5;
#X obj 417 -730 r pix;
#X obj 327 -737 r lum;
#X msg 182 -509 open 4;
#X obj -8 -763 inlet;
#X msg 125 -518 close;
#X obj 118 -736 sel 0 1;
#X obj 489 -712 r t_pix;
#X obj 483 -652 int;
#X floatatom 479 -613 5 0 0 0 - - -, f 5;
#X obj 588 -672 r rand1;
#X obj 265 -538 pack \$1 \$2 \$3 \$4 \$5 \$6 \$7;
#X obj 581 -647 int;
#X floatatom 577 -608 5 0 0 0 - - -, f 5;
#X obj 651 -647 int;
#X floatatom 647 -608 5 0 0 0 - - -, f 5;
#X obj 658 -672 r rand2;
#X obj 731 -647 int;
#X floatatom 727 -608 5 0 0 0 - - -, f 5;
#X obj 738 -672 r rand3;
#X msg 265 -513 \$1 \$2 \$3 \$4 \$5 \$6 \$7;
#X obj 220 -567 bng 15 250 50 0 empty empty empty 17 7 0 10 -262144
-1 -1;
#X connect 0 0 3 0;
#X connect 1 0 4 0;
#X connect 2 0 5 0;
#X connect 3 0 25 0;
#X connect 4 0 25 1;
#X connect 5 0 25 2;
#X connect 7 0 12 0;
#X connect 8 0 10 0;
#X connect 8 0 14 0;
#X connect 9 0 13 0;
#X connect 11 0 9 0;
#X connect 13 0 14 0;
#X connect 14 0 0 0;
#X connect 15 0 2 0;
#X connect 16 0 1 0;
#X connect 17 0 12 0;
#X connect 18 0 8 0;
#X connect 18 0 20 0;
#X connect 19 0 12 0;
#X connect 20 0 19 0;
#X connect 20 1 17 0;
#X connect 21 0 22 0;
#X connect 22 0 23 0;
#X connect 23 0 25 3;
#X connect 24 0 26 0;
#X connect 25 0 34 0;
#X connect 26 0 27 0;
#X connect 27 0 25 4;
#X connect 28 0 29 0;
#X connect 29 0 25 5;
#X connect 30 0 28 0;
#X connect 31 0 32 0;
#X connect 32 0 25 6;
#X connect 33 0 31 0;
#X connect 34 0 7 0;
#X connect 34 0 6 0;
#X connect 35 0 3 0;
