#N canvas 0 0 450 300 10;
#X msg -388 -148 \; pixel bounds 0 35 15 0;
#X msg -388 -112 \; pixel xticks 0 1 4;
#X msg -388 -76 \; pixel yticks 0 1 2;
#X msg -236 -148 \; color bounds 0 13 15 0;
#X msg -388 -184 \; pixel resize \$1;
#X floatatom -388 -228 5 0 0 0 - - -;
#X msg -388 -207 \$1;
#X floatatom -281 -229 5 0 0 0 - - -;
#X msg -281 -207 \$1;
#X msg -281 -184 \; color resize \$1;
#X floatatom -174 -229 5 0 0 0 - - -;
#X msg -174 -207 \$1;
#X msg -174 -184 \; brightness resize \$1;
#X obj -174 -252 int;
#X obj -281 -252 int;
#X obj -388 -252 int;
#X text -391 -296 ARRAY PERAMETERS;
#X msg -236 -111 \; color yticks 0 1 1;
#X msg -236 -78 \; color ylabel -2 1 2 3 4 5 6 7 8 9 10 11 12 13 14
14 15 16 17 18 19 20;
#X msg -341 -249 16;
#X msg -128 -251 16;
#X msg -239 -251 16;
#X floatatom -35 -229 5 0 0 0 - - -;
#X msg -35 -207 \$1;
#X obj -35 -252 int;
#X msg 11 -251 16;
#X msg -35 -184 \; delay resize \$1;
#X obj -388 -275 r frame;
#X obj -281 -275 r frame;
#X obj -174 -275 r frame;
#X obj -35 -275 r frame;
#X connect 5 0 6 0;
#X connect 6 0 4 0;
#X connect 7 0 8 0;
#X connect 8 0 9 0;
#X connect 10 0 11 0;
#X connect 11 0 12 0;
#X connect 13 0 10 0;
#X connect 14 0 7 0;
#X connect 15 0 5 0;
#X connect 19 0 5 0;
#X connect 20 0 10 0;
#X connect 21 0 7 0;
#X connect 22 0 23 0;
#X connect 23 0 26 0;
#X connect 24 0 22 0;
#X connect 25 0 22 0;
#X connect 27 0 15 0;
#X connect 28 0 14 0;
#X connect 29 0 13 0;
#X connect 30 0 24 0;
