#N canvas 1 81 1902 974 10;
#X text -185 -424 LED COMPOSER V1 DESIGN - STUART MCFARLANE 2014 WWW.STUARTMCFARLANE.COM
;
#N canvas 0 50 450 300 (subpatch) 0;
#X array brightness 4800 float 2;
#X coords 0 127 4800 0 2000 60 1;
#X restore -183 -116 graph;
#N canvas 0 50 450 300 (subpatch) 0;
#X array channelL 5.292e+06 float 2;
#X coords 0 1 5.292e+06 -1 2000 100 1;
#X restore -182 425 graph;
#N canvas 0 50 450 300 (subpatch) 0;
#X array color 4800 float 2;
#X coords 0 60 4800 0 2000 200 1;
#X restore -182 -34 graph;
#N canvas 0 50 450 300 (subpatch) 0;
#X array delay 4800 float 2;
#X coords 0 500 4800 0 2000 60 1;
#X restore -183 -200 graph;
#X obj -179 663 hsl 1995 30 0 1 0 0 empty beatA audio_time_line -2
-8 0 10 -262144 -1 -1 53615 1;
#N canvas 0 50 450 300 (subpatch) 0;
#X array pixel 4800 float 2;
#X coords 0 35 4800 0 2000 200 1;
#X restore -182 193 graph;
#X obj -179 770 hsl 1995 30 0 4800 0 0 empty framecount frame_check
-2 -8 0 10 -262144 -1 -1 53589 1;
#X obj -179 714 hsl 1995 30 0 1 0 0 loop empty defined_start_point
-2 -8 0 10 -262144 -1 -1 0 1;
#X obj -346 425 cnv 15 160 100 empty empty empty 20 12 0 14 -228856
-66577 0;
#X floatatom -223 447 5 0 0 0 - pixelnumber -, f 5;
#X floatatom -223 467 5 0 0 0 - colornumber -, f 5;
#X floatatom -223 487 5 0 0 0 - brightnessnumber -, f 5;
#X floatatom -223 507 5 0 0 0 - delaynumber -, f 5;
#X floatatom -223 427 5 0 0 0 - framecount -, f 5;
#X text -304 426 FRAME NUMBER;
#X text -304 446 PIXEL NUMBER;
#X text -334 486 BRIGHTNESS NUMBER;
#X text -304 466 COLOR NUMBER;
#X text -303 506 DELAY NUMBER;
#N canvas 0 50 450 300 (subpatch) 0;
#X array channelR 5.292e+06 float 2;
#X coords 0 1 5.292e+06 -1 2000 100 1 0 0;
#X restore -182 545 graph;
#N canvas 399 474 257 280 sub1 1;
#X obj 21 33 r bpm;
#X obj 21 57 s metro;
#X text 19 12 BPM GENERATOR;
#X obj 20 204 record_and_load;
#X obj 21 174 array_params;
#X obj 21 146 sample_ctl;
#X obj 22 111 key_ctl;
#X obj 21 83 looper;
#X obj 21 231 arduino;
#X obj 126 35 r framecount;
#X obj 126 64 s beatnumber;
#X obj 120 233 plinth_init;
#X connect 0 0 1 0;
#X connect 9 0 10 0;
#X restore -182 -360 pd sub1;
#X obj -183 -332 cnv 15 300 100 empty empty empty 20 12 0 14 -233017
-66577 0;
#X obj -173 -304 tgl 64 0 bang spacebar empty 0 -10 0 10 -262144 -258113
-1 1 1;
#X text -176 -327 PAUSE | PLAY | SPACEBAR;
#X obj -25 -305 bng 64 250 50 0 zero returntostart empty 0 -10 0 10
-262144 -4034 -1;
#X text -28 -327 RETURN TO START | S KEY;
#X coords 0 974 1 973 128 265 0;
