#N canvas 370 155 977 513 10;
#X obj 48 5 phasor~ 400;
#X obj 158 19 phasor~ 450;
#X obj 188 49 phasor~ 500;
#X obj 188 69 phasor~ 550;
#X obj 188 89 phasor~ 750;
#X obj 43 129 *~ 0.5;
#X obj 43 292 spigot~;
#X obj 380 48 r rout;
#X obj 322 182 == 3;
#X obj 368 186 == 4;
#X obj 90 358 outlet~;
#X obj 494 90 osc~ 0.25;
#X obj 531 238 snapshot~;
#X obj 531 260 abs;
#X obj 454 215 r quik;
#X obj 531 283 i;
#X obj 531 303 spigot;
#X obj 535 211 *~ 8;
#X obj 532 337 s pix;
#X obj 303 279 expr ($f2 != $f3) \;;
#X obj 282 112 t b b;
#X obj 510 29 inlet;
#X obj 617 95 inlet;
#X obj 574 154 spigot;
#X floatatom 650 179 5 0 0 0 - - -, f 5;
#X obj 635 197 spigot;
#X floatatom 464 340 5 0 0 0 - - -, f 5;
#X floatatom 604 341 5 0 0 0 - - -, f 5;
#X floatatom 602 284 5 0 0 0 - - -, f 5;
#X floatatom 581 183 5 0 0 0 - - -, f 5;
#X floatatom 633 229 5 0 0 0 - - -, f 5;
#X obj 646 136 maxlib/scale 0 33 6 17;
#X floatatom 317 318 5 0 0 0 - - -, f 5;
#X floatatom 102 267 5 0 0 0 - - -, f 5;
#X obj 102 245 expr ($f1 != 10 && $f1 < 17);
#X connect 0 0 5 0;
#X connect 1 0 5 0;
#X connect 2 0 5 0;
#X connect 3 0 5 0;
#X connect 4 0 5 0;
#X connect 5 0 6 0;
#X connect 6 1 10 0;
#X connect 7 0 8 0;
#X connect 7 0 9 0;
#X connect 7 0 20 0;
#X connect 7 0 34 0;
#X connect 8 0 19 1;
#X connect 8 0 23 1;
#X connect 9 0 19 2;
#X connect 9 0 25 1;
#X connect 11 0 17 0;
#X connect 12 0 13 0;
#X connect 13 0 15 0;
#X connect 13 0 28 0;
#X connect 14 0 12 0;
#X connect 15 0 16 0;
#X connect 15 0 26 0;
#X connect 16 0 18 0;
#X connect 16 0 27 0;
#X connect 17 0 12 0;
#X connect 19 0 16 1;
#X connect 19 0 32 0;
#X connect 20 0 19 0;
#X connect 20 1 9 0;
#X connect 20 1 8 0;
#X connect 21 0 11 0;
#X connect 22 0 23 0;
#X connect 22 0 31 0;
#X connect 23 0 29 0;
#X connect 23 0 17 1;
#X connect 24 0 25 0;
#X connect 25 0 30 0;
#X connect 30 0 17 1;
#X connect 31 0 24 0;
#X connect 34 0 6 1;
#X connect 34 0 33 0;
