#N canvas 285 217 943 487 10;
#X obj 29 23 tgl 15 0 empty empty empty 17 7 0 10 -262144 -1 -1 1 1
;
#X obj 30 45 metro 4096;
#X floatatom 43 131 5 0 0 0 - - -, f 5;
#X msg 23 283 17;
#X obj 132 87 bng 15 250 50 0 empty empty empty 17 7 0 10 -262144 -1
-1;
#X msg 66 288 18;
#X obj 23 415 s rout;
#X msg 103 289 19;
#X msg 146 284 1;
#X msg 195 285 5;
#X msg 235 286 6;
#X msg 276 282 8;
#X obj 49 84 bng 15 250 50 0 empty empty empty 17 7 0 10 -262144 -1
-1;
#X msg 354 286 3;
#X msg 394 290 4;
#X msg 527 313 14;
#X msg 567 313 15;
#X msg 607 313 16;
#X msg 611 186 0;
#X obj 626 216 s pix;
#X obj 30 108 cyclone/counter 0 0 68;
#X obj 30 154 sel 0 2 4 6 8 10 12 14 16 18 20 22 24 26 30 31 33 36
40 44 48 49 51 53 55 57 59 61 63 67;
#X obj 608 149 sel 49 51 53 55 57 59 61 63 67;
#X obj 158 26 loadbang;
#X obj 171 58 delay 1000;
#X msg 425 293 10;
#X msg 313 282 10;
#X msg 649 186 22;
#X msg 702 189 13;
#X connect 0 0 1 0;
#X connect 1 0 20 0;
#X connect 3 0 6 0;
#X connect 4 0 20 3;
#X connect 5 0 6 0;
#X connect 7 0 6 0;
#X connect 8 0 6 0;
#X connect 9 0 6 0;
#X connect 10 0 6 0;
#X connect 11 0 6 0;
#X connect 12 0 20 0;
#X connect 13 0 6 0;
#X connect 14 0 6 0;
#X connect 15 0 6 0;
#X connect 16 0 6 0;
#X connect 17 0 6 0;
#X connect 18 0 19 0;
#X connect 20 0 2 0;
#X connect 20 0 21 0;
#X connect 20 0 22 0;
#X connect 21 0 3 0;
#X connect 21 1 5 0;
#X connect 21 2 3 0;
#X connect 21 3 5 0;
#X connect 21 4 7 0;
#X connect 21 5 3 0;
#X connect 21 6 8 0;
#X connect 21 7 3 0;
#X connect 21 8 8 0;
#X connect 21 9 9 0;
#X connect 21 10 8 0;
#X connect 21 11 3 0;
#X connect 21 12 10 0;
#X connect 21 13 11 0;
#X connect 21 14 26 0;
#X connect 21 15 13 0;
#X connect 21 16 14 0;
#X connect 21 17 13 0;
#X connect 21 18 14 0;
#X connect 21 19 13 0;
#X connect 21 20 25 0;
#X connect 21 21 15 0;
#X connect 21 22 16 0;
#X connect 21 23 15 0;
#X connect 21 24 16 0;
#X connect 21 25 15 0;
#X connect 21 26 16 0;
#X connect 21 27 17 0;
#X connect 21 28 16 0;
#X connect 21 29 15 0;
#X connect 22 0 18 0;
#X connect 22 1 27 0;
#X connect 22 2 18 0;
#X connect 22 3 27 0;
#X connect 22 4 18 0;
#X connect 22 5 27 0;
#X connect 22 6 28 0;
#X connect 22 7 27 0;
#X connect 22 8 18 0;
#X connect 23 0 0 0;
#X connect 23 0 24 0;
#X connect 24 0 4 0;
#X connect 25 0 6 0;
#X connect 26 0 6 0;
#X connect 27 0 19 0;
#X connect 28 0 19 0;
