#N canvas 909 233 691 589 10;
#X obj 23 -15 cnv 15 128 192 empty empty empty 20 12 0 14 -233017 -66577
0;
#X obj 36 94 moses 0;
#X obj 75 117 moses 16;
#X floatatom 34 141 5 0 0 0 - - -, f 5;
#X obj 192 -14 cnv 15 128 192 empty empty empty 20 12 0 14 -233017
-66577 0;
#X text 26 -14 MIDI Channel 2:;
#X obj 250 176 s midi_pix;
#X obj 250 85 s vel_lum;
#X floatatom 203 159 5 0 0 0 - - -, f 5;
#X text 195 -15 MIDI Channel 3:;
#X text 193 13 Velocity capable of;
#X text 192 24 setting luminosity \,;
#X text 194 38 see channel 6;
#X obj 343 -14 cnv 15 128 192 empty empty empty 20 12 0 14 -233017
-66577 0;
#X floatatom 352 138 5 0 0 0 - - -, f 5;
#X obj 392 139 s midi_lum;
#X text 351 -12 MIDI Channel 4:;
#X text 350 5 Choose Luminosity -;
#X text 351 22 0..127;
#X obj 485 -15 cnv 15 128 128 empty empty empty 20 12 0 14 -233017
-66577 0;
#X text 487 -12 MIDI Channel 5:;
#X text 486 1 Choose Delay: 0..127;
#X obj 26 201 cnv 15 128 256 empty empty empty 20 12 0 14 -233017 -66577
0;
#N canvas 517 422 264 151 pixel_sel 0;
#X obj 73 11 inlet;
#X obj 28 5 inlet;
#X obj 129 -16 inlet;
#X obj 9 31 cyclone/switch 2;
#X obj 6 74 s pix;
#X connect 0 0 3 2;
#X connect 1 0 3 1;
#X connect 2 0 3 0;
#X connect 3 0 4 0;
#X restore 31 402 pd pixel_sel;
#X obj 65 379 r snd_pix;
#X obj 31 355 r midi_pix;
#X text 27 202 MIDI Channel 6:;
#X text 26 228 Choose Pixel Method:;
#X text 24 10 Choose Routine -;
#X text 25 26 0..16;
#X obj 192 201 cnv 15 192 256 empty empty empty 20 12 0 14 -233017
-66577 0;
#N canvas 230 527 235 105 lum_sel 0;
#X obj 22 5 inlet;
#X obj 62 5 inlet;
#X obj 102 5 inlet;
#X obj 142 5 inlet;
#X obj 7 45 cyclone/switch 3;
#X obj 7 71 s lum;
#X connect 0 0 4 1;
#X connect 1 0 4 2;
#X connect 2 0 4 3;
#X connect 3 0 4 0;
#X connect 4 0 5 0;
#X restore 204 462 pd lum_sel;
#X obj 204 400 r vel_lum;
#X obj 223 420 r midi_lum;
#X obj 242 441 r snd_lum;
#X text 196 201 MIDI Channel 8:;
#X text 195 223 comment;
#X text 195 212 Choose luminosity method:;
#X obj 422 201 cnv 15 192 256 empty empty empty 20 12 0 14 -233017
-66577 0;
#X obj 471 339 snapshot~;
#X obj 550 275 loadbang;
#X obj 550 298 1;
#X obj 550 322 metro 25;
#X obj 471 411 i;
#X obj 471 435 s snd_pix;
#X obj 541 435 s snd_lum;
#X obj 471 362 abs;
#X floatatom 431 435 5 0 0 0 - - -, f 5;
#X obj 471 388 maxlib/scale 0 1 0 127;
#X text 426 201 Audio Input 1:;
#X text 426 213 Mono (left) channel \, capable of;
#X text 424 225 controlling pixel and/or;
#X text 424 237 luminosity \, see MIDI channels;
#X text 427 250 6 & 7;
#X text 767 225 comment;
#X text 361 30 comment;
#X text 370 283 comment;
#X obj 75 138 s rout;
#X obj 492 92 s del;
#X floatatom 36 69 5 0 0 0 - - -, f 5;
#X obj 36 49 ctlin 6 1;
#X text 44 159 comment;
#X obj 197 61 notein 1;
#X text 194 -3 Choose Pixel - 60..93;
#X obj 197 108 moses 60;
#X obj 250 130 moses 94;
#X obj 355 45 ctlin 6 2;
#X obj 493 20 ctlin 6 3;
#X floatatom 525 52 5 0 0 0 - - -, f 5;
#X obj 78 279 ctlin 6 4;
#X text 26 243 <= 63 == MIDI channel 3;
#X text 26 260 >= 64 == audio input;
#X obj 78 307 moses 64;
#X obj 130 336 bng 15 250 50 0 empty empty empty 17 7 0 10 -262144
-1 -1;
#X obj 78 338 bng 15 250 50 0 empty empty empty 17 7 0 10 -262144 -1
-1;
#X msg 122 360 1;
#X msg 162 371 2;
#X text 195 233 <= 42 == pixel MIDI velocity (3);
#X text 195 245 (>= 43 && <= 84) == MIDI channel 4;
#X text 195 258 (>= 85) == audio input;
#X obj 222 298 moses 42;
#X obj 289 313 moses 85;
#X msg 224 347 1;
#X msg 295 354 2;
#X msg 344 397 3;
#X obj 222 325 bng 15 250 50 0 empty empty empty 17 7 0 10 -262144
-1 -1;
#X obj 294 334 bng 15 250 50 0 empty empty empty 17 7 0 10 -262144
-1 -1;
#X obj 345 376 bng 15 250 50 0 empty empty empty 17 7 0 10 -262144
-1 -1;
#X obj 222 270 ctlin 6 5;
#X obj 470 280 adc~ 1 2;
#X floatatom 336 290 5 0 0 0 - - -, f 5;
#X floatatom 153 102 5 0 0 0 - - -, f 5;
#X obj 252 154 - 60;
#X obj 40 428 loadbang;
#X msg 39 452 \; pd dsp 1;
#X obj 57 514 arduino;
#X connect 1 1 2 0;
#X connect 2 0 3 0;
#X connect 2 0 57 0;
#X connect 24 0 23 1;
#X connect 25 0 23 0;
#X connect 32 0 31 1;
#X connect 33 0 31 0;
#X connect 34 0 31 2;
#X connect 39 0 46 0;
#X connect 40 0 41 0;
#X connect 41 0 42 0;
#X connect 42 0 39 0;
#X connect 43 0 44 0;
#X connect 43 0 45 0;
#X connect 43 0 47 0;
#X connect 46 0 48 0;
#X connect 48 0 43 0;
#X connect 59 0 1 0;
#X connect 60 0 59 0;
#X connect 62 0 64 0;
#X connect 62 0 91 0;
#X connect 62 1 7 0;
#X connect 64 1 65 0;
#X connect 65 0 8 0;
#X connect 65 0 92 0;
#X connect 66 0 14 0;
#X connect 66 0 15 0;
#X connect 67 0 58 0;
#X connect 67 0 68 0;
#X connect 69 0 72 0;
#X connect 72 0 74 0;
#X connect 72 1 73 0;
#X connect 73 0 76 0;
#X connect 74 0 75 0;
#X connect 75 0 23 2;
#X connect 76 0 23 2;
#X connect 80 0 85 0;
#X connect 80 1 81 0;
#X connect 81 0 86 0;
#X connect 81 1 87 0;
#X connect 82 0 31 3;
#X connect 83 0 31 3;
#X connect 84 0 31 3;
#X connect 85 0 82 0;
#X connect 86 0 83 0;
#X connect 87 0 84 0;
#X connect 88 0 80 0;
#X connect 88 0 90 0;
#X connect 89 0 39 0;
#X connect 89 1 39 0;
#X connect 92 0 6 0;
#X connect 93 0 94 0;
