#N canvas 691 314 664 453 10;
#X msg 439 110 2;
#X obj 441 140 s numSigs;
#X obj 46 105 4amp 1;
#X obj 53 148 send_sigs;
#X obj 251 196 i;
#X obj 118 100 4amp 2;
#X obj 281 230 + 17;
#X obj 281 265 moses 34;
#X obj 329 297 - 33;
#X floatatom 315 343 5 0 0 0 - - -, f 5;
#X obj 47 330 outlet~;
#X obj 63 310 outlet~;
#X obj 81 290 outlet~;
#X obj 97 270 outlet~;
#X obj 438 83 sel 1;
#X obj 438 25 r rout;
#X obj 309 122 r pix;
#X obj 307 149 spigot;
#X obj 220 244 4pan 1;
#X obj 315 380 4pan 2;
#X obj 47 13 r~ sig1;
#X obj 119 37 r~ sig2;
#X obj 438 54 expr ($f1 == 5 || $f1 == 18) \;;
#X connect 0 0 1 0;
#X connect 2 0 3 0;
#X connect 2 1 3 1;
#X connect 2 2 3 2;
#X connect 2 3 3 3;
#X connect 3 0 10 0;
#X connect 3 1 11 0;
#X connect 3 2 12 0;
#X connect 3 3 13 0;
#X connect 4 0 6 0;
#X connect 4 0 18 0;
#X connect 5 0 3 0;
#X connect 5 1 3 1;
#X connect 5 2 3 2;
#X connect 5 3 3 3;
#X connect 6 0 7 0;
#X connect 7 0 9 0;
#X connect 7 1 8 0;
#X connect 8 0 9 0;
#X connect 9 0 19 0;
#X connect 14 0 0 0;
#X connect 15 0 22 0;
#X connect 16 0 17 0;
#X connect 17 0 4 0;
#X connect 20 0 2 0;
#X connect 21 0 5 0;
#X connect 22 0 14 0;
#X connect 22 0 3 4;
#X connect 22 0 17 1;
