#N canvas 0 0 277 281 10;
#X obj 64 -519 s pixel;
#X obj 9 -519 s color;
#X obj 115 -518 s brightness;
#X obj 197 -518 s delay;
#X floatatom 9 -541 5 0 0 0 - - -;
#X obj 9 -658 bng 15 250 50 0 empty empty empty 17 7 0 10 -262144 -1
-1;
#X text 4 -765 EFFECTS CHECK;
#X floatatom 64 -541 5 0 33 0 - - -;
#X obj 64 -563 bng 15 250 50 0 empty empty empty 17 7 0 10 -262144
-1 -1;
#X floatatom 197 -540 5 0 0 0 - - -;
#X obj 197 -561 bng 15 250 50 0 empty empty empty 17 7 0 10 -262144
-1 -1;
#X obj 9 -682 random 33;
#X obj 9 -736 tgl 15 0 empty empty empty 17 7 0 10 -262144 -1 -1 0
1;
#X obj 9 -712 metro 200;
#X floatatom 60 -738 5 0 0 0 - - -;
#X floatatom 115 -541 5 0 126 0 - - -;
#X obj 115 -562 bng 15 250 50 0 empty empty empty 17 7 0 10 -262144
-1 -1;
#X obj 63 -608 bng 15 250 50 0 empty empty empty 17 7 0 10 -262144
-1 -1;
#X obj 63 -584 random 33;
#X obj 9 -631 random 46;
#X connect 4 0 1 0;
#X connect 4 0 8 0;
#X connect 4 0 17 0;
#X connect 4 0 10 0;
#X connect 4 0 16 0;
#X connect 5 0 19 0;
#X connect 7 0 0 0;
#X connect 8 0 7 0;
#X connect 9 0 3 0;
#X connect 10 0 9 0;
#X connect 11 0 5 0;
#X connect 12 0 13 0;
#X connect 13 0 11 0;
#X connect 14 0 13 1;
#X connect 15 0 2 0;
#X connect 16 0 15 0;
#X connect 17 0 18 0;
#X connect 18 0 7 0;
#X connect 19 0 4 0;
