#N canvas 538 95 472 460 10;
#X msg 371 131 2;
#X obj 373 161 s numSigs;
#X obj 56 115 4amp 1;
#X obj 63 158 send_sigs;
#X obj 257 204 i;
#X obj 287 238 + 17;
#X obj 287 273 moses 34;
#X obj 335 305 - 33;
#X floatatom 321 351 5 0 0 0 - - -, f 5;
#X obj 57 340 outlet~;
#X obj 73 320 outlet~;
#X obj 91 300 outlet~;
#X obj 107 280 outlet~;
#X obj 401 83 sel 1;
#X obj 211 274 hemipan 1;
#X obj 116 115 4amp 2;
#X obj 321 394 hemipan 2;
#X obj 404 39 == 11;
#X obj 259 161 spigot;
#X obj 265 132 r pix;
#X obj 402 10 r rout;
#X obj 47 13 r~ sig1;
#X obj 119 37 r~ sig2;
#X connect 0 0 1 0;
#X connect 2 0 3 0;
#X connect 2 1 3 1;
#X connect 2 2 3 2;
#X connect 2 3 3 3;
#X connect 3 0 9 0;
#X connect 3 1 10 0;
#X connect 3 2 11 0;
#X connect 3 3 12 0;
#X connect 4 0 5 0;
#X connect 4 0 14 0;
#X connect 5 0 6 0;
#X connect 6 0 8 0;
#X connect 6 1 7 0;
#X connect 7 0 8 0;
#X connect 8 0 16 0;
#X connect 13 0 0 0;
#X connect 15 0 3 0;
#X connect 15 1 3 1;
#X connect 15 2 3 2;
#X connect 15 3 3 3;
#X connect 17 0 13 0;
#X connect 17 0 3 4;
#X connect 17 0 18 1;
#X connect 18 0 4 0;
#X connect 19 0 18 0;
#X connect 20 0 17 0;
#X connect 21 0 2 0;
#X connect 22 0 15 0;
