#N canvas 1 95 573 361 10;
#X obj -2 -687 loadbang;
#X msg -2 -646 4800;
#X obj -2 -621 s frame;
#X obj 61 -687 loadbang;
#X msg 61 -646 25;
#X obj 61 -621 s bpm;
#X obj -1 -576 loadbang;
#X obj -1 -549 s open;
#X obj 68 -570 loadbang;
#X obj 68 -548 s loadsample;
#X obj 6 -467 loadbang;
#X obj 6 -419 s open1;
#X obj 101 -490 loadbang;
#X obj 101 -413 s bang;
#X obj 183 -464 loadbang;
#X obj 183 -417 s zero;
#X msg 101 -436 1;
#X obj 6 -443 delay 10000;
#X obj 101 -469 delay 12000;
#X obj 183 -439 delay 15000;
#X text -3 -710 Init num frames and tempo;
#X text -4 -597 Open serial port and load audio;
#X text 3 -524 Wait ten seconds \, load composition data \, start the
timeline and reset to ensure sync.;
#X connect 0 0 1 0;
#X connect 1 0 2 0;
#X connect 3 0 4 0;
#X connect 4 0 5 0;
#X connect 6 0 7 0;
#X connect 8 0 9 0;
#X connect 10 0 17 0;
#X connect 12 0 18 0;
#X connect 14 0 19 0;
#X connect 16 0 13 0;
#X connect 17 0 11 0;
#X connect 18 0 16 0;
#X connect 19 0 15 0;
