#N canvas 716 222 450 300 10;
#X obj 143 144 *~;
#X obj 143 176 outlet~;
#X obj 144 114 osc~;
#X obj 144 35 r lum;
#X obj 144 57 maxlib/scale 0 127 0.3 0.4;
#X obj 144 84 + 50;
#X msg 345 127 2;
#X obj 345 149 s rout;
#X obj 43 33 r flux;
#X obj 43 55 drunk 34 3;
#X obj 43 77 s pix;
#X floatatom 8 81 5 0 0 0 - - -, f 5;
#X connect 0 0 1 0;
#X connect 2 0 0 0;
#X connect 3 0 4 0;
#X connect 4 0 5 0;
#X connect 5 0 2 0;
#X connect 6 0 7 0;
#X connect 8 0 9 0;
#X connect 9 0 10 0;
#X connect 9 0 11 0;
