#N canvas 0 0 123 117 10;
#X obj -351 -242 key;
#X floatatom -351 -214 5 0 0 0 - - -;
#X obj -351 -167 tgl 15 0 spacebar empty empty 17 7 0 10 -262144 -1
-1 0 1;
#X text -352 -267 KEY CONTROLS;
#X obj -314 -167 tgl 15 0 returntostart empty empty 17 7 0 10 -262144
-1 -1 0 1;
#X obj -351 -190 select 32 115;
#X obj -287 -242 keyup;
#X floatatom -287 -217 5 0 0 0 - - -;
#X connect 0 0 1 0;
#X connect 1 0 5 0;
#X connect 5 0 2 0;
#X connect 5 1 4 0;
#X connect 6 0 7 0;
