#N canvas 1 81 568 267 10;
#X obj -389 -529 tabread pixel;
#X floatatom -389 -506 5 0 35 0 - - -, f 5;
#X floatatom -389 -551 5 0 0 0 - framecount -, f 5;
#X obj -389 -448 s pixel;
#X obj -374 -648 r bang;
#X obj -389 -473 int;
#X obj -389 -631 tgl 15 0 empty empty empty 17 7 0 10 -262144 -1 -1
1 1;
#X obj -389 -608 metro 0;
#X floatatom -292 -506 5 0 5 0 - - -, f 5;
#X floatatom -292 -551 5 0 0 0 - framecount -, f 5;
#X obj -292 -473 int;
#X obj -292 -448 s color;
#X obj -292 -529 tabread color;
#X floatatom -192 -507 5 0 127 0 - - -, f 5;
#X floatatom -192 -552 5 0 0 0 - framecount -, f 5;
#X obj -192 -474 int;
#X obj -192 -530 tabread brightness;
#X obj -192 -449 s brightness;
#X obj -350 -627 r metro;
#X text -391 -681 PLAY BACK LOOP;
#X floatatom -333 -599 5 0 0 0 - - -, f 5;
#X floatatom -232 -599 5 0 0 0 - - -, f 5;
#X obj -269 -659 r zero;
#X obj -269 -636 bng 15 250 50 0 empty empty empty 17 7 0 10 -262144
-1 -1;
#X msg -269 -616 0;
#X floatatom -72 -507 5 0 127 0 - - -, f 5;
#X floatatom -72 -552 5 0 0 0 - framecount -, f 5;
#X obj -72 -474 int;
#X obj -72 -530 tabread delay;
#X obj -72 -449 s delay;
#X obj -232 -623 r frame;
#X obj 89 -532 r frame;
#X floatatom 32 -485 5 0 0 0 - - zero, f 5;
#X floatatom 89 -485 5 0 0 0 - - -, f 5;
#X text 53 -554 LOOP SYNC;
#X obj 32 -508 select 239;
#X floatatom 32 -529 5 0 0 0 - framecount -, f 5;
#X floatatom -337 -447 5 0 0 0 - - pixelnumber, f 5;
#X floatatom -242 -447 5 0 0 0 - - colornumber, f 5;
#X floatatom -112 -448 5 0 0 0 - - brightnessnumber, f 5;
#X floatatom -21 -448 5 0 0 0 - - delaynumber, f 5;
#X obj -389 -583 cyclone/counter;
#X connect 0 0 1 0;
#X connect 1 0 5 0;
#X connect 2 0 0 0;
#X connect 4 0 6 0;
#X connect 5 0 3 0;
#X connect 5 0 37 0;
#X connect 6 0 7 0;
#X connect 7 0 41 0;
#X connect 8 0 10 0;
#X connect 9 0 12 0;
#X connect 10 0 11 0;
#X connect 10 0 38 0;
#X connect 12 0 8 0;
#X connect 13 0 15 0;
#X connect 14 0 16 0;
#X connect 15 0 17 0;
#X connect 15 0 39 0;
#X connect 16 0 13 0;
#X connect 18 0 7 1;
#X connect 20 0 41 3;
#X connect 21 0 41 4;
#X connect 22 0 23 0;
#X connect 23 0 24 0;
#X connect 24 0 20 0;
#X connect 25 0 27 0;
#X connect 26 0 28 0;
#X connect 27 0 29 0;
#X connect 27 0 40 0;
#X connect 28 0 25 0;
#X connect 30 0 21 0;
#X connect 31 0 35 1;
#X connect 35 0 32 0;
#X connect 35 1 33 0;
#X connect 36 0 35 0;
