#N canvas 538 201 666 383 10;
#X obj 35 224 tgl 15 0 empty empty empty 17 7 0 10 -262144 -1 -1 0
1;
#X obj 34 256 metro 40;
#X obj 466 248 snapshot~;
#X obj 466 270 abs;
#X obj 466 292 i;
#X obj 466 314 s lum;
#X floatatom 416 321 5 0 0 0 - - -, f 5;
#X obj 460 60 cyclone/drunk 127 8;
#X obj 462 18 r flux;
#X obj 468 94 maxlib/scale 0 127 0.3 0.4;
#X obj 461 141 osc~ 0.3;
#X obj 465 164 spigot~;
#X obj 557 155 phasor~;
#X obj 530 200 spigot~;
#X obj 47 44 r rout;
#X obj 136 350 s kill;
#X obj 466 226 *~ 127;
#X obj 118 257 - 1;
#X obj 118 279 abs;
#X obj 36 287 s quik;
#X msg 521 294 0;
#X obj 161 107 expr ($f1 > 2 && $f1 < 5) \;;
#X floatatom 181 303 5 0 0 0 - - -, f 5;
#X obj 67 217 expr (($f1 > 1 && $f1 < 5) || ($f1 > 13 && $f1 < 17))
\;;
#X obj 35 179 expr (($f1 > 1 && $f1 < 5) || ($f1 > 13 && $f1 < 17)
|| $f1 == 10) \;;
#X floatatom 157 249 5 0 0 0 - - -, f 5;
#X obj 161 137 expr ($f1 > 13 && $f1 < 17 || $f1 == 10) \;;
#X connect 0 0 1 0;
#X connect 1 0 2 0;
#X connect 1 0 19 0;
#X connect 2 0 3 0;
#X connect 3 0 4 0;
#X connect 4 0 5 0;
#X connect 4 0 6 0;
#X connect 7 0 9 0;
#X connect 8 0 7 0;
#X connect 9 0 10 0;
#X connect 9 0 12 0;
#X connect 10 0 11 0;
#X connect 11 1 16 0;
#X connect 12 0 13 0;
#X connect 13 1 16 0;
#X connect 14 0 21 0;
#X connect 14 0 23 0;
#X connect 14 0 24 0;
#X connect 14 0 26 0;
#X connect 16 0 2 0;
#X connect 17 0 18 0;
#X connect 18 0 15 0;
#X connect 18 0 22 0;
#X connect 20 0 5 0;
#X connect 21 0 13 1;
#X connect 23 0 25 0;
#X connect 24 0 0 0;
#X connect 24 0 17 0;
#X connect 26 0 11 1;
