#N canvas 312 275 551 177 10;
#X obj 76 67 ctlin 1 1;
#X obj 156 67 ctlin 2 1;
#X obj 236 67 ctlin 3 1;
#X obj 316 67 ctlin 4 1;
#X obj 396 67 ctlin 5 1;
#X floatatom 76 89 5 0 0 0 - - -, f 5;
#X floatatom 156 89 5 0 0 0 - - -, f 5;
#X floatatom 236 89 5 0 0 0 - - -, f 5;
#X floatatom 316 89 5 0 0 0 - - -, f 5;
#X floatatom 396 89 5 0 0 0 - - -, f 5;
#X obj 476 67 tgl 15 0 empty empty empty 17 7 0 10 -262144 -1 -1 0
1;
#X obj 476 87 s serial;
#X obj 76 108 s pix;
#X obj 156 108 s width;
#X obj 236 108 s red;
#X obj 316 108 s green;
#X obj 396 108 s blue;
#X obj 12 67 notein 1;
#X obj 476 34 loadbang;
#X obj 12 28 arduino;
#X connect 0 0 5 0;
#X connect 1 0 6 0;
#X connect 2 0 7 0;
#X connect 3 0 8 0;
#X connect 4 0 9 0;
#X connect 5 0 12 0;
#X connect 6 0 13 0;
#X connect 7 0 14 0;
#X connect 8 0 15 0;
#X connect 9 0 16 0;
#X connect 10 0 11 0;
#X connect 17 0 5 0;
#X connect 18 0 10 0;
