#N canvas 49 191 1351 549 10;
#X obj -560 201 monad;
#X obj -508 203 spectrum;
#X obj -328 201 spectrum_double;
#X obj -442 204 spectrum_part;
#X obj -213 205 diad;
#X obj -160 207 triad;
#X obj -97 204 triad_chase;
#X obj 2 206 tetrad;
#X obj 61 215 skinny_tetrad;
#X obj 182 221 strip;
#X obj -566 456 4master;
#X obj 245 214 hemisphere;
#X obj 333 218 trisect;
#X obj 419 214 quadrant;
#X obj 501 214 outsider;
#X obj 478 251 outsider_triad;
#X obj 621 258 outsider_tetrad;
#X floatatom -566 118 5 0 33 0 - - -, f 5;
#X obj -567 159 s t_pix;
#X obj -565 585 dac~ 4 3 2 1;
#X obj -245 79 tgl 15 0 empty empty empty 17 7 0 10 -262144 -1 -1 1
1;
#X obj -245 101 arduino;
#X obj -110 431 r lum;
#X obj -110 453 maxlib/scale 0 127 0 0.1;
#X obj -244 10 loadbang;
#X obj 158 80 snd;
#X obj -121 44 r rout;
#X obj -118 76 sel 0;
#X msg -118 98 0;
#X obj -118 120 s lum;
#X obj -66 123 s kill;
#X obj 200 71 ctl;
#X msg -349 45 \; pd dsp 1;
#X obj 311 386 r~ direct;
#X obj 307 75 lum;
#X connect 0 0 10 0;
#X connect 0 1 10 1;
#X connect 0 2 10 2;
#X connect 0 3 10 3;
#X connect 1 0 10 0;
#X connect 1 1 10 1;
#X connect 1 2 10 2;
#X connect 1 3 10 3;
#X connect 2 0 10 0;
#X connect 2 1 10 1;
#X connect 2 2 10 2;
#X connect 2 3 10 3;
#X connect 3 0 10 0;
#X connect 3 1 10 1;
#X connect 3 2 10 2;
#X connect 3 3 10 3;
#X connect 4 0 10 0;
#X connect 4 1 10 1;
#X connect 4 2 10 2;
#X connect 4 3 10 3;
#X connect 5 0 10 0;
#X connect 5 1 10 1;
#X connect 5 2 10 2;
#X connect 5 3 10 3;
#X connect 6 0 10 0;
#X connect 6 1 10 1;
#X connect 6 2 10 2;
#X connect 6 3 10 3;
#X connect 7 0 10 0;
#X connect 7 1 10 1;
#X connect 7 2 10 2;
#X connect 7 3 10 3;
#X connect 8 0 10 0;
#X connect 8 1 10 1;
#X connect 8 2 10 2;
#X connect 8 3 10 3;
#X connect 9 0 10 0;
#X connect 9 1 10 1;
#X connect 9 2 10 2;
#X connect 9 3 10 3;
#X connect 10 0 19 0;
#X connect 10 1 19 1;
#X connect 10 2 19 2;
#X connect 10 3 19 3;
#X connect 11 0 10 0;
#X connect 11 1 10 1;
#X connect 11 2 10 2;
#X connect 11 3 10 3;
#X connect 12 0 10 0;
#X connect 12 1 10 1;
#X connect 12 2 10 2;
#X connect 12 3 10 3;
#X connect 13 0 10 0;
#X connect 13 1 10 1;
#X connect 13 2 10 2;
#X connect 13 3 10 3;
#X connect 14 0 10 0;
#X connect 14 1 10 1;
#X connect 14 2 10 2;
#X connect 14 3 10 3;
#X connect 15 0 10 0;
#X connect 15 1 10 1;
#X connect 15 2 10 2;
#X connect 15 3 10 3;
#X connect 16 0 10 0;
#X connect 16 1 10 1;
#X connect 16 2 10 2;
#X connect 16 3 10 3;
#X connect 17 0 18 0;
#X connect 20 0 21 0;
#X connect 22 0 23 0;
#X connect 23 0 10 4;
#X connect 24 0 20 0;
#X connect 24 0 32 0;
#X connect 26 0 27 0;
#X connect 27 0 28 0;
#X connect 28 0 29 0;
#X connect 28 0 30 0;
#X connect 33 0 10 0;
#X connect 33 0 10 1;
#X connect 33 0 10 2;
#X connect 33 0 10 3;
