#N canvas 1137 804 328 128 10;
#X obj -97 23 inlet~;
#X obj -97 101 outlet~;
#X obj -37 23 inlet~;
#X obj -37 101 outlet~;
#X obj 23 23 inlet~;
#X obj 23 101 outlet~;
#X obj 83 23 inlet~;
#X obj 83 101 outlet~;
#X obj 98 45 inlet;
#X obj 83 78 /~;
#X obj 23 78 /~;
#X obj -37 78 /~;
#X obj -97 78 /~;
#X connect 0 0 12 0;
#X connect 2 0 11 0;
#X connect 4 0 10 0;
#X connect 6 0 9 0;
#X connect 8 0 9 1;
#X connect 8 0 10 1;
#X connect 8 0 11 1;
#X connect 8 0 12 1;
#X connect 9 0 7 0;
#X connect 10 0 5 0;
#X connect 11 0 3 0;
#X connect 12 0 1 0;
#X coords 0 -1 1 1 256 16 1 100 100;
