#N canvas 0 0 570 427 10;
#X floatatom -389 -676 5 0 60 0 - - -;
#X floatatom -338 -676 5 0 126 0 - - -;
#X obj -389 -724 notein 1;
#X obj -73 -646 bng 15 250 50 0 empty empty empty 17 7 0 10 -262144
-1 -1;
#X obj -73 -626 counter;
#X floatatom -73 -602 5 0 0 0 - - beatnumber;
#X floatatom -387 -562 5 0 33 0 - - -;
#X floatatom -348 -561 5 0 0 0 - - -;
#X obj -73 -686 tgl 15 0 empty empty empty 17 7 0 10 -262144 -1 -1
0 1;
#X obj -389 -701 stripnote;
#X obj -258 -656 s pixelbrightness;
#X obj -387 -586 ctlin 7;
#X floatatom -385 -468 5 0 499 0 - - -;
#X floatatom -340 -468 5 0 0 0 - - -;
#X obj -385 -492 ctlin 10;
#X obj -385 -446 s delay;
#X text -391 -765 MIDI INPUT;
#X text -387 -511 PIXEL DELAY;
#X obj 81 -731 midirealtimein;
#X obj -73 -666 metro 0;
#X obj -34 -688 r metro;
#X obj -22 -664 r zero;
#X obj -22 -641 bng 15 250 50 0 empty empty empty 17 7 0 10 -262144
-1 -1;
#X obj 81 -705 == 248;
#X obj 81 -682 t b b;
#X obj 108 -658 del 500;
#X msg 108 -636 0;
#X obj 80 -585 mod 24;
#X obj 81 -610 f;
#X obj 108 -610 + 1;
#X obj 81 -564 sel 0;
#X obj 81 -541 bng 15 250 50 0 empty empty empty 17 7 0 10 -262144
-1 -1;
#X obj 102 -542 cup;
#X floatatom 102 -517 5 0 0 0 - - -;
#X obj -143 -731 select 248 250 252;
#X obj -73 -707 bng 15 250 50 0 empty empty empty 17 7 0 10 -262144
-1 -1;
#X obj 26 -692 r bpm;
#X floatatom 26 -642 5 0 0 0 - - -;
#X obj -336 -540 s pixelno;
#X obj -389 -631 s pixelcolor;
#X obj 26 -668 int;
#X floatatom -384 -377 5 0 0 0 - - -;
#X floatatom -339 -377 5 0 0 0 - - -;
#X obj -384 -401 ctlin;
#X obj -387 -540 s pixel;
#X obj -389 -655 s color;
#X obj -338 -655 s brightness;
#X obj -337 -446 s pixeldelay;
#X text -391 -747 PIXEL EFFECT AND BRIGHTNESS;
#X text -389 -605 PIXEL NUMBER;
#X text -48 -765 MIDI METRO AND BEAT SYNC;
#X text -386 -421 MIDI CHANNEL CHECK;
#X connect 0 0 39 0;
#X connect 0 0 45 0;
#X connect 1 0 10 0;
#X connect 1 0 46 0;
#X connect 2 0 9 0;
#X connect 2 1 9 1;
#X connect 3 0 4 0;
#X connect 4 0 5 0;
#X connect 6 0 44 0;
#X connect 6 0 38 0;
#X connect 8 0 19 0;
#X connect 9 0 0 0;
#X connect 9 1 1 0;
#X connect 11 0 6 0;
#X connect 11 1 7 0;
#X connect 12 0 15 0;
#X connect 12 0 47 0;
#X connect 14 0 12 0;
#X connect 14 1 13 0;
#X connect 18 0 23 0;
#X connect 19 0 3 0;
#X connect 20 0 19 1;
#X connect 21 0 22 0;
#X connect 22 0 4 2;
#X connect 23 0 24 0;
#X connect 24 0 28 0;
#X connect 24 1 25 0;
#X connect 25 0 26 0;
#X connect 26 0 28 1;
#X connect 27 0 30 0;
#X connect 28 0 29 0;
#X connect 28 0 27 0;
#X connect 29 0 28 1;
#X connect 30 0 31 0;
#X connect 30 0 32 0;
#X connect 32 0 33 0;
#X connect 34 2 35 0;
#X connect 35 0 8 0;
#X connect 36 0 40 0;
#X connect 37 0 4 4;
#X connect 40 0 37 0;
#X connect 43 0 41 0;
#X connect 43 1 42 0;
