#N canvas 530 301 391 371 10;
#X obj 209 178 i;
#X obj 289 128 s numSigs;
#X obj 46 105 4amp 1;
#X obj 53 148 send_sigs;
#X obj 47 330 outlet~;
#X obj 63 310 outlet~;
#X obj 81 290 outlet~;
#X obj 97 270 outlet~;
#X obj 291 63 sel 1;
#X msg 287 98 1;
#X obj 204 222 4pan 1;
#X obj 289 2 r rout;
#X obj 215 112 r pix;
#X obj 209 150 spigot;
#X obj 51 28 r~ sig1;
#X obj 291 29 expr ($f1 == 1 || $f1 ==17) \;;
#X connect 0 0 10 0;
#X connect 2 0 3 0;
#X connect 2 1 3 1;
#X connect 2 2 3 2;
#X connect 2 3 3 3;
#X connect 3 0 4 0;
#X connect 3 1 5 0;
#X connect 3 2 6 0;
#X connect 3 3 7 0;
#X connect 8 0 9 0;
#X connect 9 0 1 0;
#X connect 11 0 15 0;
#X connect 12 0 13 0;
#X connect 13 0 0 0;
#X connect 14 0 2 0;
#X connect 15 0 8 0;
#X connect 15 0 3 4;
#X connect 15 0 13 1;
