#N canvas 1289 900 148 142 10;
#X obj 7 10 inlet;
#X obj 7 31 moses 0;
#X msg 7 54 0;
#X obj 46 54 moses 1;
#X obj 85 103 outlet;
#X msg 85 77 1;
#X connect 0 0 1 0;
#X connect 1 0 2 0;
#X connect 1 1 3 0;
#X connect 2 0 4 0;
#X connect 3 0 4 0;
#X connect 3 1 5 0;
#X connect 5 0 4 0;
