#N canvas 742 817 222 127 10;
#X obj 9 14 inlet~;
#X obj 9 43 /~ \$1;
#X obj 9 69 outlet~;
#X obj 59 14 inlet~;
#X obj 59 43 /~ \$1;
#X obj 59 69 outlet~;
#X obj 113 14 inlet~;
#X obj 113 43 /~ \$1;
#X obj 113 69 outlet~;
#X obj 163 14 inlet~;
#X obj 163 43 /~ \$1;
#X obj 163 69 outlet~;
#X connect 0 0 1 0;
#X connect 1 0 2 0;
#X connect 3 0 4 0;
#X connect 4 0 5 0;
#X connect 6 0 7 0;
#X connect 7 0 8 0;
#X connect 9 0 10 0;
#X connect 10 0 11 0;
