#N canvas 511 161 388 459 10;
#X obj 209 268 i;
#X obj 289 218 s numSigs;
#X obj 46 195 4amp 1;
#X obj 53 238 send_sigs;
#X obj 47 420 outlet~;
#X obj 63 400 outlet~;
#X obj 81 380 outlet~;
#X obj 97 360 outlet~;
#X obj 291 153 sel 1;
#X msg 287 188 1;
#X obj 204 312 4pan 1;
#X obj 289 92 r rout;
#X obj 209 240 spigot;
#X floatatom 246 299 5 0 0 0 - - -, f 5;
#X obj 291 119 == 14;
#X obj 201 203 r rand1;
#X floatatom 175 243 5 0 0 0 - - -, f 5;
#X obj 59 144 r~ sig1;
#X obj 145 166 r~ direct;
#X connect 0 0 10 0;
#X connect 0 0 13 0;
#X connect 2 0 3 0;
#X connect 2 1 3 1;
#X connect 2 2 3 2;
#X connect 2 3 3 3;
#X connect 3 0 4 0;
#X connect 3 1 5 0;
#X connect 3 2 6 0;
#X connect 3 3 7 0;
#X connect 8 0 9 0;
#X connect 9 0 1 0;
#X connect 11 0 14 0;
#X connect 12 0 0 0;
#X connect 14 0 8 0;
#X connect 14 0 3 4;
#X connect 14 0 12 1;
#X connect 15 0 12 0;
#X connect 15 0 16 0;
#X connect 17 0 2 0;
#X connect 18 0 3 0;
#X connect 18 0 3 1;
#X connect 18 0 3 2;
#X connect 18 0 3 3;
