#N canvas 216 157 508 534 10;
#X obj 217 394 i;
#X obj 399 318 s numSigs;
#X obj 56 245 4amp 1;
#X obj 63 288 send_sigs;
#X obj 57 470 outlet~;
#X obj 73 450 outlet~;
#X obj 91 430 outlet~;
#X obj 107 410 outlet~;
#X obj 401 183 sel 1;
#X msg 397 218 1;
#X obj 212 438 4pan 1;
#X obj 399 122 r rout;
#X obj 217 366 spigot;
#X obj 209 329 r rand1;
#X obj 280 429 i;
#X obj 280 401 spigot;
#X obj 272 364 r rand2;
#X obj 113 207 4amp 2;
#X obj 401 149 == 15;
#X obj 275 473 4pan 2;
#X obj 21 -9 r~ sig1;
#X obj 91 -9 r~ sig2;
#X obj 211 197 r~ direct;
#X connect 0 0 10 0;
#X connect 2 0 3 0;
#X connect 2 1 3 1;
#X connect 2 2 3 2;
#X connect 2 3 3 3;
#X connect 3 0 4 0;
#X connect 3 1 5 0;
#X connect 3 2 6 0;
#X connect 3 3 7 0;
#X connect 8 0 9 0;
#X connect 9 0 1 0;
#X connect 11 0 18 0;
#X connect 12 0 0 0;
#X connect 13 0 12 0;
#X connect 14 0 19 0;
#X connect 15 0 14 0;
#X connect 16 0 15 0;
#X connect 17 0 3 0;
#X connect 17 1 3 1;
#X connect 17 2 3 2;
#X connect 17 3 3 3;
#X connect 18 0 8 0;
#X connect 18 0 3 4;
#X connect 18 0 12 1;
#X connect 18 0 15 1;
#X connect 20 0 2 0;
#X connect 21 0 17 0;
#X connect 22 0 3 3;
#X connect 22 0 3 2;
#X connect 22 0 3 1;
#X connect 22 0 3 0;
