#N canvas 192 204 540 390 10;
#X obj 227 264 i;
#X obj 435 130 s numSigs;
#X obj 83 81 4amp 1;
#X obj 73 158 send_sigs;
#X obj 67 340 outlet~;
#X obj 83 320 outlet~;
#X obj 101 300 outlet~;
#X obj 117 280 outlet~;
#X obj 437 65 sel 1;
#X msg 433 100 1;
#X obj 435 4 r rout;
#X obj 227 236 spigot;
#X obj 219 199 r rand1;
#X obj 290 299 i;
#X obj 290 271 spigot;
#X obj 282 234 r rand2;
#X obj 179 70 4amp 2;
#X obj 289 55 4amp 3;
#X obj 350 299 i;
#X obj 350 271 spigot;
#X obj 437 31 == 16;
#X obj 342 234 r rand3;
#X obj 222 308 4pan 1;
#X obj 285 343 4pan 2;
#X obj 345 343 4pan 3;
#X obj 17 23 r~ direct;
#X obj 75 47 r~ sig1;
#X obj 171 36 r~ sig2;
#X obj 281 21 r~ sig3;
#X connect 0 0 22 0;
#X connect 2 0 3 0;
#X connect 2 1 3 1;
#X connect 2 2 3 2;
#X connect 2 3 3 3;
#X connect 3 0 4 0;
#X connect 3 1 5 0;
#X connect 3 2 6 0;
#X connect 3 3 7 0;
#X connect 8 0 9 0;
#X connect 9 0 1 0;
#X connect 10 0 20 0;
#X connect 11 0 0 0;
#X connect 12 0 11 0;
#X connect 13 0 23 0;
#X connect 14 0 13 0;
#X connect 15 0 14 0;
#X connect 16 0 3 0;
#X connect 16 1 3 1;
#X connect 16 2 3 2;
#X connect 16 3 3 3;
#X connect 17 0 3 0;
#X connect 17 1 3 1;
#X connect 17 2 3 2;
#X connect 17 3 3 3;
#X connect 18 0 24 0;
#X connect 19 0 18 0;
#X connect 20 0 8 0;
#X connect 20 0 3 4;
#X connect 20 0 11 1;
#X connect 20 0 14 1;
#X connect 20 0 19 1;
#X connect 21 0 19 0;
#X connect 25 0 3 3;
#X connect 25 0 3 2;
#X connect 25 0 3 1;
#X connect 25 0 3 0;
#X connect 26 0 2 0;
#X connect 27 0 16 0;
#X connect 28 0 17 0;
