#N canvas 177 236 1049 458 10;
#X obj 249 135 phasor~ 266;
#X obj 557 165 osc~ 50;
#X obj 149 216 spigot~;
#X obj 251 217 spigot~;
#X obj 147 134 phasor~ 300;
#X obj 364 135 phasor~ 333;
#X obj 372 223 spigot~;
#X obj 49 216 spigot~;
#X obj 47 134 phasor~ 250;
#X obj 469 216 spigot~;
#X obj 467 134 phasor~ 350;
#X obj 95 326 outlet~;
#X obj 383 8 r rout;
#X obj 605 301 outlet~;
#X obj 195 326 outlet~;
#X obj 89 186 spigot~;
#X obj 387 39 == 14;
#X obj 516 326 outlet~;
#X obj 515 44 == 16;
#X obj 448 44 == 15;
#X obj 836 308 s rand1;
#X obj 878 288 s rand2;
#X obj 922 268 s rand3;
#X obj 836 213 unpack 0 0 0;
#X obj 837 177 markex/tripleRand 34;
#X obj 836 271 i;
#X obj 878 251 i;
#X obj 922 247 i;
#X obj 836 96 r quik;
#X obj 567 16 t b b;
#X connect 0 0 3 0;
#X connect 1 0 13 0;
#X connect 2 1 14 0;
#X connect 3 1 11 0;
#X connect 4 0 2 0;
#X connect 4 0 15 0;
#X connect 5 0 6 0;
#X connect 6 1 14 0;
#X connect 7 1 11 0;
#X connect 8 0 7 0;
#X connect 9 1 17 0;
#X connect 10 0 9 0;
#X connect 12 0 16 0;
#X connect 12 0 18 0;
#X connect 12 0 19 0;
#X connect 12 0 29 0;
#X connect 15 1 11 0;
#X connect 16 0 15 1;
#X connect 18 0 7 1;
#X connect 18 0 2 1;
#X connect 18 0 9 1;
#X connect 19 0 3 1;
#X connect 19 0 6 1;
#X connect 23 0 25 0;
#X connect 23 1 26 0;
#X connect 23 2 27 0;
#X connect 24 0 23 0;
#X connect 25 0 20 0;
#X connect 26 0 21 0;
#X connect 27 0 22 0;
#X connect 28 0 24 0;
#X connect 29 1 18 0;
#X connect 29 1 19 0;
#X connect 29 1 16 0;
