#N canvas 1 110 450 300 10;
#X obj 61 128 outlet~;
#X obj 267 131 outlet~;
#X obj 121 148 outlet~;
#X obj 119 66 phasor~ 200;
#X obj 59 46 phasor~ 266;
#X obj 264 14 osc~ 50;
#X connect 3 0 2 0;
#X connect 4 0 0 0;
#X connect 5 0 1 0;
