#N canvas 1846 876 298 162 10;
#X obj 7 3 inlet;
#X obj 7 57 maxlib/scale \$1 \$2 2 1;
#X obj 151 57 maxlib/scale \$1 \$2 0 1;
#X obj 7 77 - 1;
#X obj 7 97 normalise;
#X obj 151 97 normalise;
#X obj 7 118 outlet;
#X obj 151 118 outlet;
#X connect 0 0 1 0;
#X connect 0 0 2 0;
#X connect 1 0 3 0;
#X connect 2 0 5 0;
#X connect 3 0 4 0;
#X connect 4 0 6 0;
#X connect 5 0 7 0;
