#N canvas 0 0 566 132 10;
#X obj -389 -379 int;
#X floatatom -389 -355 5 0 0 0 - - -;
#X obj -259 -379 int;
#X floatatom -178 -357 5 0 0 0 - beat -;
#X floatatom -259 -355 5 0 0 0 - - -;
#X obj -129 -379 int;
#X floatatom -18 -356 5 0 0 0 - beat -;
#X floatatom -129 -355 5 0 0 0 - - -;
#X floatatom -308 -355 5 0 0 0 - beat -;
#X text -392 -427 MANUAL PIXEL CONTROLS;
#X floatatom 113 -355 5 0 0 0 - beat -;
#X floatatom 32 -354 5 0 0 0 - - -;
#X obj 32 -377 int;
#X obj -389 -401 r pix;
#X obj -259 -402 r rout;
#X obj -129 -403 r lum;
#X obj 32 -402 r del;
#X obj -389 -333 tabwrite pixel;
#X obj -259 -333 tabwrite color;
#X obj -129 -333 tabwrite brightness;
#X obj 32 -332 tabwrite delay;
#X connect 0 0 1 0;
#X connect 2 0 4 0;
#X connect 5 0 7 0;
#X connect 12 0 11 0;
#X connect 13 0 0 0;
#X connect 14 0 2 0;
#X connect 15 0 5 0;
#X connect 16 0 12 0;
