#N canvas 2 47 636 1012 10;
#X obj 217 193 int;
#X obj 271 193 int;
#X obj 355 193 int;
#X floatatom 217 218 5 0 0 0 - - -, f 5;
#X floatatom 271 218 5 0 0 0 - - -, f 5;
#X floatatom 355 218 5 0 0 0 - - -, f 5;
#X obj 170 308 print;
#X obj 410 192 int;
#X floatatom 410 217 5 0 0 0 - - -, f 5;
#X obj 217 244 pack \$1 \$2 \$3 \$4;
#X msg 217 269 \$1 \$2 \$3 \$4;
#X text 215 34 SEND TO ARDUINO;
#X obj 217 291 cyclone/spell;
#X obj 490 194 bng 15 250 50 0 empty empty empty 17 7 0 10 -262144
-1 -1;
#X floatatom 227 118 5 0 0 0 - - -, f 5;
#X msg 75 145 1;
#X obj 218 65 r rout;
#X obj 218 143 change;
#X floatatom 217 167 5 0 0 0 - - -, f 5;
#X obj 369 102 r pix;
#X obj 279 95 r lum;
#X obj 69 33 loadbang;
#X obj 64 59 1;
#X obj 445 114 r width;
#X msg 397 275 close;
#X obj 486 29 hsl 128 15 512 40 0 0 empty empty empty -2 -8 0 10 -262144
-1 -1 0 1;
#X msg 347 315 open 0;
#X obj 220 353 comport 0 115200;
#X obj 151 20 tgl 15 0 empty empty empty 17 7 0 10 -262144 -1 -1 1
1;
#X obj 60 87 metro 50;
#X connect 0 0 3 0;
#X connect 1 0 4 0;
#X connect 2 0 5 0;
#X connect 3 0 9 0;
#X connect 4 0 9 1;
#X connect 5 0 9 2;
#X connect 7 0 8 0;
#X connect 8 0 9 3;
#X connect 9 0 10 0;
#X connect 10 0 12 0;
#X connect 10 0 6 0;
#X connect 12 0 27 0;
#X connect 13 0 8 0;
#X connect 14 0 17 0;
#X connect 16 0 14 0;
#X connect 17 0 18 0;
#X connect 18 0 0 0;
#X connect 19 0 2 0;
#X connect 20 0 1 0;
#X connect 21 0 22 0;
#X connect 22 0 29 0;
#X connect 23 0 7 0;
#X connect 24 0 27 0;
#X connect 25 0 29 1;
#X connect 26 0 27 0;
#X connect 28 0 29 0;
#X connect 29 0 15 0;
#X connect 29 0 18 0;
