#N canvas 0 95 1366 673 10;
#X obj 66 491 *~ 1;
#X floatatom 1071 372 5 0 0 0 - - -, f 5;
#X obj 1007 346 i;
#X obj 1007 368 s lum;
#X obj 876 482 s pix;
#X obj 881 449 i;
#X obj 875 279 random 12;
#X obj 875 399 maxlib/scale 0 11 0 33;
#X obj 66 469 osc~ 4000;
#X obj 203 139 *~ 1;
#X obj 493 239 *~ 1;
#X obj 788 185 *~ 1;
#X obj 788 163 osc~ 7000;
#X obj 929 302 / 3;
#X obj 1007 324 maxlib/scale 0 4 0 127;
#X floatatom 944 475 5 0 0 0 - - -, f 5;
#X obj 908 250 metro 128;
#X obj 202 98 osc~ 5000;
#X obj 493 217 osc~ 6000;
#X obj 66 513 spigot~;
#X obj 111 607 outlet~;
#X obj 191 14 r rout;
#X obj 148 468 expr ($f1 == 1 || $f1 >= 5 && $f1 < 10 || $f1 >= 17)
\;;
#X floatatom 168 490 5 0 0 0 - - -, f 5;
#X obj 203 161 spigot~;
#X obj 498 398 outlet~;
#X obj 238 119 expr ($f1 == 8 || $f1 == 20) \;;
#X obj 316 171 osc~ 5333.33;
#X obj 316 193 *~;
#X obj 316 215 spigot~;
#X obj 361 193 expr ($f1 == 6 || $f1 == 19) \;;
#X obj 562 239 expr ($f1 == 5 || $f1 == 18) \;;
#X obj 493 261 spigot~;
#X obj 788 206 spigot~;
#X obj 727 63 *~ 1;
#X obj 723 99 spigot~;
#X obj 727 41 osc~ 6000;
#X obj 637 63 *~ 1;
#X obj 637 84 spigot~;
#X obj 637 41 osc~ 6666.67;
#X obj 683 158 outlet~;
#X obj 832 238 outlet~;
#X obj 910 198 r kill;
#X connect 0 0 19 0;
#X connect 2 0 3 0;
#X connect 2 0 1 0;
#X connect 5 0 4 0;
#X connect 5 0 15 0;
#X connect 6 0 7 0;
#X connect 6 0 13 0;
#X connect 7 0 5 0;
#X connect 8 0 0 0;
#X connect 9 0 24 0;
#X connect 10 0 32 0;
#X connect 11 0 33 0;
#X connect 12 0 11 0;
#X connect 13 0 14 0;
#X connect 14 0 2 0;
#X connect 16 0 6 0;
#X connect 17 0 9 0;
#X connect 18 0 10 0;
#X connect 19 1 20 0;
#X connect 21 0 22 0;
#X connect 21 0 26 0;
#X connect 21 0 30 0;
#X connect 21 0 31 0;
#X connect 22 0 23 0;
#X connect 22 0 19 1;
#X connect 24 1 25 0;
#X connect 26 0 24 1;
#X connect 26 0 33 1;
#X connect 26 0 35 1;
#X connect 27 0 28 0;
#X connect 28 0 29 0;
#X connect 29 1 25 0;
#X connect 30 0 29 1;
#X connect 30 0 38 1;
#X connect 31 0 32 1;
#X connect 32 1 25 0;
#X connect 33 1 41 0;
#X connect 34 0 35 0;
#X connect 35 1 40 0;
#X connect 36 0 34 0;
#X connect 37 0 38 0;
#X connect 38 1 40 0;
#X connect 39 0 37 0;
#X connect 42 0 16 0;
