#N canvas 652 236 340 229 10;
#X text 100 -770 RECORD AND LOAD LOOP;
#X obj 6 -736 r open1;
#X msg 6 -707 \; pixel read spectra10_1.txt;
#X msg 17 -659 \; color read spectra10_2.txt;
#X msg 6 -614 \; brightness read spectra10_3.txt;
#X msg 6 -577 \; delay read spectra10_4.txt;
#X connect 1 0 2 0;
#X connect 1 0 3 0;
#X connect 1 0 4 0;
#X connect 1 0 5 0;
