#N canvas 838 136 775 716 10;
#X text 179 -766 SAMPLE LOAD AND PLAY;
#X msg 184 -720 \; pd dsp \$1;
#X obj 185 -602 soundfiler;
#X floatatom 206 -576 12 0 0 0 - - -, f 12;
#X obj 206 -551 s samplesize;
#X obj 185 -525 expr 44100/ $f1;
#X floatatom 206 -495 12 0 0 0 - - -, f 12;
#X obj 185 -454 phasor~;
#X msg 60 -471 0;
#X msg 95 -471 0.0162674;
#X obj 185 -387 *~;
#X obj 200 -428 r samplesize;
#X msg 242 -471 0;
#X msg 277 -471 0.5;
#X obj 184 -235 tabread4~ channelL;
#X obj 323 -425 tgl 15 0 empty empty empty 17 7 0 10 -262144 -1 -1
0 1;
#X obj 323 -371 snapshot~;
#X floatatom 323 -344 12 0 0 0 - - -, f 12;
#X obj 323 -304 /;
#X obj 353 -321 r samplesize;
#X floatatom 323 -277 5 0 0 0 - - -, f 5;
#X obj 326 -257 hsl 195 15 0 1 0 0 empty empty empty -2 -8 0 10 -262144
-1 -1 1662 1;
#X obj 323 -450 r bang;
#X obj 323 -236 s beatA;
#X obj 184 -745 r bang;
#X obj 185 -675 r loadsample;
#X obj 322 -509 r zero;
#X obj 322 -486 bng 15 250 50 0 empty empty empty 17 7 0 10 -262144
-1 -1;
#X obj 22 -490 hsl 128 15 0 1 0 0 empty empty empty -2 -8 0 10 -262144
-1 -1 0 1;
#X obj 373 -491 hsl 128 15 0 1 0 0 empty loop empty -2 -8 0 10 -262144
-1 -1 0 1;
#X floatatom 19 -470 5 0 0 0 - - -, f 5;
#X floatatom 370 -470 5 0 0 0 - - -, f 5;
#X floatatom 377 -186 5 0 0 0 - - -, f 5;
#X floatatom 440 -138 5 0 0 0 - - -, f 5;
#X obj 377 -137 bng 15 250 50 0 empty empty empty 17 7 0 10 -262144
-1 -1;
#X obj 377 -236 * 10000;
#X obj 323 -401 metro 250;
#X floatatom 374 -427 5 0 0 0 - bpm -, f 5;
#X obj 377 -211 int;
#X obj 377 -162 select 9976;
#X obj 230 -318 * 240;
#X floatatom 230 -269 5 0 0 0 - - framecount, f 5;
#X obj 230 -293 int;
#X floatatom 257 -341 5 0 0 0 - frame -, f 5;
#X obj 184 -114 dac~;
#X obj 184 -156 *~ 0.7;
#X obj 232 -156 *~ 0.7;
#X obj 232 -215 tabread4~ channelR;
#X msg 185 -653 symbol ./Rsample.wav;
#X msg 423 -743 symbol ./Lsample.wav;
#X obj 423 -683 soundfiler;
#X msg 185 -627 read -resize -maxsize 2.646e+07 \$1 channelR;
#X msg 423 -717 read -resize -maxsize 2.646e+07 \$1 channelL;
#X connect 2 0 3 0;
#X connect 2 0 5 0;
#X connect 3 0 4 0;
#X connect 5 0 6 0;
#X connect 5 0 7 0;
#X connect 7 0 10 0;
#X connect 8 0 7 0;
#X connect 9 0 7 0;
#X connect 10 0 14 0;
#X connect 10 0 16 0;
#X connect 10 0 47 0;
#X connect 11 0 10 1;
#X connect 12 0 7 1;
#X connect 13 0 7 1;
#X connect 14 0 45 0;
#X connect 15 0 36 0;
#X connect 16 0 17 0;
#X connect 17 0 18 0;
#X connect 18 0 20 0;
#X connect 19 0 18 1;
#X connect 20 0 21 0;
#X connect 20 0 40 0;
#X connect 21 0 23 0;
#X connect 21 0 35 0;
#X connect 22 0 15 0;
#X connect 24 0 1 0;
#X connect 25 0 48 0;
#X connect 25 0 49 0;
#X connect 26 0 27 0;
#X connect 27 0 12 0;
#X connect 28 0 30 0;
#X connect 29 0 31 0;
#X connect 30 0 7 0;
#X connect 31 0 7 1;
#X connect 31 0 20 0;
#X connect 32 0 39 0;
#X connect 35 0 38 0;
#X connect 36 0 16 0;
#X connect 37 0 36 1;
#X connect 38 0 32 0;
#X connect 39 0 34 0;
#X connect 39 1 33 0;
#X connect 40 0 42 0;
#X connect 42 0 41 0;
#X connect 43 0 40 1;
#X connect 45 0 44 0;
#X connect 46 0 44 1;
#X connect 47 0 46 0;
#X connect 48 0 51 0;
#X connect 49 0 52 0;
#X connect 51 0 2 0;
#X connect 52 0 50 0;
