#N canvas 485 217 775 214 10;
#X obj 20 20 inlet~;
#X obj 196 16 inlet~;
#X obj 372 6 inlet~;
#X obj 577 7 inlet~;
#X obj 675 19 inlet;
#X obj 156 150 outlet~;
#X obj 333 143 outlet~;
#X obj 511 134 outlet~;
#X obj 706 137 outlet~;
#X obj 20 65 unauthorized/spigot~;
#X obj 197 70 unauthorized/spigot~;
#X obj 371 60 unauthorized/spigot~;
#X obj 577 57 unauthorized/spigot~;
#X connect 0 0 9 0;
#X connect 1 0 10 0;
#X connect 2 0 11 0;
#X connect 3 0 12 0;
#X connect 4 0 9 1;
#X connect 4 0 10 1;
#X connect 4 0 11 1;
#X connect 4 0 12 1;
#X connect 9 1 5 0;
#X connect 10 1 6 0;
#X connect 11 1 7 0;
#X connect 12 1 8 0;
