#N canvas 936 47 982 534 10;
#X obj 132 189 int;
#X obj 197 195 int;
#X obj 281 195 int;
#X floatatom 197 220 5 0 0 0 - - -, f 5;
#X floatatom 281 220 5 0 0 0 - - -, f 5;
#X obj 336 194 int;
#X floatatom 336 219 5 0 0 0 - - -, f 5;
#X text 133 12 SEND TO ARDUINO;
#X obj 134 451 cyclone/spell;
#X msg 67 422 close;
#X obj 103 290 tgl 15 0 empty empty empty 17 7 0 10 -262144 -1 -1 1
1;
#X msg 267 456 devices;
#X msg 267 433 open 0;
#X obj 137 513 comport 0 115200;
#X obj 134 404 pack \$1 \$2 \$3 \$4 \$5;
#X msg 134 429 \$1 \$2 \$3 \$4 \$5;
#X obj 284 129 r pix;
#X obj 353 146 r width;
#X obj 401 195 int;
#X floatatom 401 220 5 0 0 0 - - -, f 5;
#X obj 141 45 r red;
#X obj 197 73 r green;
#X obj 237 103 r blue;
#X obj 472 200 s pix;
#X msg 458 167 64;
#X obj 132 241 cyclone/prepend set;
#X msg 135 348 37;
#X floatatom 135 370 5 0 0 0 - - -, f 5;
#X obj 103 321 metro 50;
#X obj 73 167 r serial;
#X obj 73 189 sel 0 1;
#X obj 94 213 t b b;
#X msg 97 236 1;
#X obj 73 251 t b b;
#X msg 119 273 0;
#X connect 0 0 25 0;
#X connect 1 0 3 0;
#X connect 2 0 4 0;
#X connect 3 0 14 1;
#X connect 4 0 14 2;
#X connect 5 0 6 0;
#X connect 6 0 14 3;
#X connect 8 0 13 0;
#X connect 9 0 13 0;
#X connect 10 0 28 0;
#X connect 11 0 13 0;
#X connect 12 0 13 0;
#X connect 14 0 15 0;
#X connect 15 0 8 0;
#X connect 16 0 5 0;
#X connect 17 0 18 0;
#X connect 18 0 19 0;
#X connect 19 0 14 4;
#X connect 20 0 0 0;
#X connect 21 0 1 0;
#X connect 22 0 2 0;
#X connect 24 0 23 0;
#X connect 25 0 26 0;
#X connect 26 0 27 0;
#X connect 27 0 14 0;
#X connect 28 0 26 0;
#X connect 29 0 30 0;
#X connect 30 0 33 0;
#X connect 30 1 31 0;
#X connect 31 0 32 0;
#X connect 31 1 12 0;
#X connect 32 0 10 0;
#X connect 33 0 9 0;
#X connect 33 1 34 0;
#X connect 34 0 10 0;
