#N canvas 847 139 518 628 10;
#X obj 36 72 4amp 1;
#X obj 126 72 4amp 2;
#X obj 286 72 4amp 4;
#X obj 196 72 4amp 3;
#X msg 414 98 4;
#X obj 414 132 s numSigs;
#X obj 36 217 send_sigs;
#X obj 408 56 sel 1;
#X obj 37 320 outlet~;
#X obj 53 300 outlet~;
#X obj 71 280 outlet~;
#X obj 87 260 outlet~;
#X obj 290 176 i;
#X obj 356 233 moses 34;
#X obj 393 268 - 33;
#X floatatom 369 296 5 0 0 0 - - -, f 5;
#X obj 366 363 moses 34;
#X obj 403 398 - 33;
#X floatatom 379 426 5 0 0 0 - - -, f 5;
#X obj 386 493 moses 34;
#X obj 423 528 - 33;
#X floatatom 399 556 5 0 0 0 - - -, f 5;
#X obj 293 210 4pan 1;
#X obj 410 323 4pan 2;
#X obj 438 452 4pan 3;
#X obj 400 592 4pan 4;
#X obj 355 202 + 5;
#X obj 365 332 + 17;
#X obj 385 462 + 22;
#X obj 397 28 == 9;
#X obj 293 135 spigot;
#X obj 395 1 r rout;
#X obj 294 108 r pix;
#X obj 273 15 r~ sig4;
#X obj 25 20 r~ sig1;
#X obj 104 18 r~ sig2;
#X obj 213 17 r~ sig3;
#X connect 0 0 6 0;
#X connect 0 1 6 1;
#X connect 0 2 6 2;
#X connect 0 3 6 3;
#X connect 1 0 6 0;
#X connect 1 1 6 1;
#X connect 1 2 6 2;
#X connect 1 3 6 3;
#X connect 2 0 6 0;
#X connect 2 1 6 1;
#X connect 2 2 6 2;
#X connect 2 3 6 3;
#X connect 3 0 6 0;
#X connect 3 1 6 1;
#X connect 3 2 6 2;
#X connect 3 3 6 3;
#X connect 4 0 5 0;
#X connect 6 0 8 0;
#X connect 6 1 9 0;
#X connect 6 2 10 0;
#X connect 6 3 11 0;
#X connect 7 0 4 0;
#X connect 12 0 22 0;
#X connect 12 0 26 0;
#X connect 13 0 15 0;
#X connect 13 1 14 0;
#X connect 14 0 15 0;
#X connect 15 0 23 0;
#X connect 15 0 27 0;
#X connect 16 0 18 0;
#X connect 16 1 17 0;
#X connect 17 0 18 0;
#X connect 18 0 24 0;
#X connect 18 0 28 0;
#X connect 19 0 21 0;
#X connect 19 1 20 0;
#X connect 20 0 21 0;
#X connect 21 0 25 0;
#X connect 26 0 13 0;
#X connect 27 0 16 0;
#X connect 28 0 19 0;
#X connect 29 0 7 0;
#X connect 29 0 6 4;
#X connect 29 0 30 1;
#X connect 30 0 12 0;
#X connect 31 0 29 0;
#X connect 32 0 30 0;
#X connect 33 0 2 0;
#X connect 34 0 0 0;
#X connect 35 0 1 0;
#X connect 36 0 3 0;
