#N canvas 159 183 467 432 10;
#X obj 11 342 s~ sig1;
#X obj 101 342 s~ sig2;
#X obj 181 342 s~ sig3;
#X obj 258 344 s~ sig4;
#X obj 331 348 s~ direct;
#X obj 30 194 chord;
#X obj 245 180 outside~;
#X obj 24 120 cyclone/drunk 127 8;
#X obj 121 95 bng 15 250 50 0 empty empty empty 17 7 0 10 -262144 -1
-1;
#X obj 174 120 cyclone/drunk 34 3;
#X obj 70 9 tgl 15 0 empty empty empty 17 7 0 10 -262144 -1 -1 1 1
;
#X obj 163 85 s flux;
#X obj 32 154 maxlib/scale 0 127 0.2 0.3;
#X obj 61 40 metro 3000;
#X obj 111 200 quad, f 9;
#X obj 161 15 loadbang;
#X connect 5 0 0 0;
#X connect 5 0 1 0;
#X connect 5 0 2 0;
#X connect 5 0 3 0;
#X connect 6 0 0 0;
#X connect 6 1 1 0;
#X connect 6 2 2 0;
#X connect 6 3 4 0;
#X connect 7 0 12 0;
#X connect 8 0 7 0;
#X connect 8 0 9 0;
#X connect 9 0 5 1;
#X connect 10 0 13 0;
#X connect 12 0 5 0;
#X connect 13 0 8 0;
#X connect 13 0 11 0;
#X connect 14 0 0 0;
#X connect 14 1 1 0;
#X connect 14 2 2 0;
#X connect 14 3 3 0;
#X connect 15 0 10 0;
