#N canvas 523 229 615 390 10;
#X obj 394 241 s numSigs;
#X obj 23 126 4amp 1;
#X obj 30 169 send_sigs;
#X obj 24 351 outlet~;
#X obj 40 331 outlet~;
#X obj 58 311 outlet~;
#X obj 74 291 outlet~;
#X obj 394 162 sel 1;
#X obj 490 272 s vol1-1;
#X obj 306 264 widepan 1;
#X obj 307 239 i;
#X msg 392 211 5;
#X obj 397 118 == 3;
#X obj 393 76 r rout;
#X obj 304 205 spigot;
#X obj 306 164 r pix;
#X msg 495 224 1;
#X obj 13 35 r~ sig1;
#X connect 1 0 2 0;
#X connect 1 1 2 1;
#X connect 1 2 2 2;
#X connect 1 3 2 3;
#X connect 2 0 3 0;
#X connect 2 1 4 0;
#X connect 2 2 5 0;
#X connect 2 3 6 0;
#X connect 7 0 11 0;
#X connect 7 0 16 0;
#X connect 10 0 9 0;
#X connect 11 0 0 0;
#X connect 12 0 7 0;
#X connect 12 0 14 1;
#X connect 12 0 2 4;
#X connect 13 0 12 0;
#X connect 14 0 10 0;
#X connect 15 0 14 0;
#X connect 16 0 8 0;
#X connect 17 0 1 0;
