#N canvas 607 302 686 465 10;
#X obj 57 340 outlet~;
#X obj 73 320 outlet~;
#X obj 91 300 outlet~;
#X obj 107 280 outlet~;
#X obj 126 14 r rout;
#X obj 119 41 == 2;
#X obj 48 81 spigot~;
#X obj 59 31 r~ sig1;
#X connect 4 0 5 0;
#X connect 5 0 6 1;
#X connect 6 0 0 0;
#X connect 6 0 1 0;
#X connect 6 0 2 0;
#X connect 6 0 3 0;
#X connect 7 0 6 0;
