#N canvas 727 270 638 497 10;
#X obj 443 174 s numSigs;
#X obj 80 231 4amp 1;
#X obj 87 274 send_sigs;
#X obj 81 456 outlet~;
#X obj 97 436 outlet~;
#X obj 115 416 outlet~;
#X obj 131 396 outlet~;
#X obj 471 96 sel 1;
#X obj 539 164 s vol1-1;
#X msg 452 143 5;
#X obj 363 194 i;
#X obj 366 229 doublepan 1;
#X obj 463 25 r rout;
#X obj 394 35 r pix;
#X obj 373 154 spigot;
#X obj 472 55 == 4;
#X msg 523 123 1;
#X obj 75 109 r~ sig1;
#X connect 1 0 2 0;
#X connect 1 1 2 1;
#X connect 1 2 2 2;
#X connect 1 3 2 3;
#X connect 2 0 3 0;
#X connect 2 1 4 0;
#X connect 2 2 5 0;
#X connect 2 3 6 0;
#X connect 7 0 9 0;
#X connect 7 0 16 0;
#X connect 9 0 0 0;
#X connect 10 0 11 0;
#X connect 12 0 15 0;
#X connect 13 0 14 0;
#X connect 14 0 10 0;
#X connect 15 0 7 0;
#X connect 15 0 2 4;
#X connect 15 0 14 1;
#X connect 16 0 8 0;
#X connect 17 0 1 0;
