#N canvas 430 244 686 465 10;
#X obj 63 158 send_sigs;
#X obj 57 340 outlet~;
#X obj 73 320 outlet~;
#X obj 91 300 outlet~;
#X obj 107 280 outlet~;
#X obj 209 58 == 10;
#X obj 210 33 r rout;
#X obj 68 120 r~ sig1;
#X obj 209 80 sel 0;
#X obj 241 113 s pix;
#X connect 0 0 1 0;
#X connect 0 1 2 0;
#X connect 0 2 3 0;
#X connect 0 3 4 0;
#X connect 5 0 0 4;
#X connect 5 0 8 0;
#X connect 6 0 5 0;
#X connect 7 0 0 0;
#X connect 7 0 0 1;
#X connect 7 0 0 2;
#X connect 7 0 0 3;
#X connect 8 1 9 0;
