#N canvas 321 474 450 300 10;
#X obj 42 93 hsl 128 15 0 127 0 0 empty empty empty -2 -8 0 10 -262144
-1 -1 8900 1;
#X obj 42 29 hsl 128 15 0 12 0 0 empty empty empty -2 -8 0 10 -262144
-1 -1 7000 1;
#X obj 202 93 hsl 128 15 0 127 0 0 empty empty empty -2 -8 0 10 -262144
-1 -1 3400 1;
#X obj 202 29 hsl 128 15 0 34 0 0 empty empty empty -2 -8 0 10 -262144
-1 -1 5800 1;
#X obj 199 49 s pix;
#X obj 39 49 s rout;
#X obj 39 113 s lum;
#X obj 199 113 s width;
#N canvas 1 89 450 300 mono_swell 1;
#X obj 115 173 osc~ 0.1;
#X obj 115 217 snapshot~;
#X obj 46 152 osc~ 100;
#X obj 46 192 *~;
#X obj 220 187 metro 25;
#X floatatom 115 239 5 0 0 0 - - -, f 5;
#X obj 115 258 abs;
#X obj 115 195 *~ 128;
#X obj 275 106 inlet;
#X obj 311 142 sel 1;
#X obj 311 164 1;
#X obj 311 192 s rout;
#X obj 115 280 s width;
#X obj 184 278 s lum;
#X obj 46 255 dac~ 1 2;
#X obj 46 214 *~;
#X connect 0 0 3 1;
#X connect 0 0 7 0;
#X connect 1 0 5 0;
#X connect 2 0 3 0;
#X connect 3 0 15 0;
#X connect 4 0 1 0;
#X connect 5 0 6 0;
#X connect 6 0 13 0;
#X connect 6 0 12 0;
#X connect 7 0 1 0;
#X connect 8 0 9 0;
#X connect 8 0 4 0;
#X connect 8 0 15 1;
#X connect 9 0 10 0;
#X connect 9 1 11 0;
#X connect 10 0 11 0;
#X connect 15 0 14 0;
#X connect 15 0 14 1;
#X restore 278 223 pd mono_swell;
#X obj 272 169 tgl 15 0 empty empty empty 17 7 0 10 -262144 -1 -1 0
1;
#N canvas 661 274 627 380 radid 0;
#X obj 257 43 * 128;
#X obj 261 11 inlet;
#X obj 153 13 inlet;
#X obj 127 200 *~;
#X obj 126 276 dac~ 1 2;
#X obj 76 92 osc~ 50;
#X obj 156 92 osc~ 950;
#X obj 87 135 *~;
#X obj 228 69 metro;
#X obj 228 91 random 128;
#X obj 234 150 maxlib/scale 0 127 0 1;
#X floatatom 289 68 5 0 0 0 - - -, f 5;
#X floatatom 302 182 5 0 0 0 - - -, f 5;
#X obj 184 151 s lum;
#X obj 397 67 random 34;
#X obj 153 35 s rout;
#X obj 345 103 s pix;
#X obj 397 89 maxlib/scale 0 33 0 1;
#X obj 127 222 *~;
#X floatatom 397 111 5 0 0 0 - - -, f 5;
#X obj 397 130 - 1;
#X obj 397 152 abs;
#X obj 81 234 *~;
#X obj 266 257 int;
#X obj 266 279 * 50;
#X obj 267 234 maxlib/scale 0 34 16 8;
#X connect 0 0 8 1;
#X connect 0 0 11 0;
#X connect 1 0 0 0;
#X connect 2 0 3 1;
#X connect 2 0 8 0;
#X connect 2 0 15 0;
#X connect 3 0 18 0;
#X connect 3 0 22 0;
#X connect 5 0 7 0;
#X connect 6 0 7 0;
#X connect 7 0 3 0;
#X connect 8 0 9 0;
#X connect 8 0 14 0;
#X connect 9 0 10 0;
#X connect 9 0 13 0;
#X connect 10 0 7 1;
#X connect 14 0 16 0;
#X connect 14 0 17 0;
#X connect 14 0 25 0;
#X connect 17 0 18 1;
#X connect 17 0 19 0;
#X connect 18 0 4 1;
#X connect 19 0 20 0;
#X connect 20 0 21 0;
#X connect 21 0 22 1;
#X connect 22 0 4 0;
#X connect 23 0 24 0;
#X connect 24 0 6 0;
#X connect 25 0 23 0;
#X restore 42 235 pd radid;
#X obj 49 193 tgl 15 0 empty empty empty 17 7 0 10 -262144 -1 -1 0
1;
#X obj 96 190 hsl 128 15 4 0.5 0 0 empty empty empty -2 -8 0 10 -262144
-1 -1 9100 1;
#N canvas 1 81 1438 794 chord_sweep 1;
#X obj 11 247 *~;
#X obj 111 247 *~;
#X obj 201 145 phasor~;
#X obj 201 247 *~;
#X obj 261 145 phasor~;
#X obj 261 247 *~;
#X obj 321 145 phasor~;
#X obj 321 247 *~;
#X obj 381 145 phasor~;
#X obj 381 247 *~;
#X obj 556 31 *~ 128;
#X obj 556 53 snapshot~;
#X obj 441 145 phasor~;
#X obj 441 247 *~;
#X obj 501 145 phasor~;
#X obj 501 247 *~;
#X obj 11 145 phasor~ 50;
#X obj 111 145 phasor~ 1;
#X obj 24 84 * 1;
#X obj 61 86 * 3;
#X obj 94 85 * 5;
#X obj 276 89 * 7;
#X obj 318 56 * 9;
#X obj 363 50 * 11;
#X obj 318 56 * 9;
#X obj 363 50 * 11;
#X obj 398 30 * 13;
#X obj 448 22 * 15;
#X msg 33 25 50;
#X obj 986 159 metro 25;
#X obj 649 162 moses 16;
#X obj 578 76 abs;
#X obj 727 214 moses 32;
#X floatatom 638 202 5 0 0 0 - - -, f 5;
#X floatatom 675 211 5 0 0 0 - - -, f 5;
#X obj 784 250 moses 48;
#X obj 601 95 s width;
#X obj 557 8 osc~ 0.3;
#X obj 847 299 moses 64;
#X obj 909 339 moses 80;
#X obj 556 97 s lum;
#X obj 36 365 *~;
#X floatatom 732 93 5 0 0 0 - - -, f 5;
#X obj 616 711 maxlib/scale 0 16 1 0;
#X obj 727 617 maxlib/scale 16 32 1 0;
#X obj 784 595 maxlib/scale 32 48 1 0;
#X obj 842 513 maxlib/scale 48 64 1 0;
#X obj 909 484 maxlib/scale 64 80 1 0;
#X obj 732 71 maxlib/scale 0 127 0 0.1;
#X obj 954 375 moses 96;
#X obj 954 440 maxlib/scale 80 96 1 0;
#X obj 1008 405 maxlib/scale 96 127 1 0;
#X obj 1027 16 inlet;
#X obj 1027 60 * 2;
#X obj 1027 82 s rout;
#X obj 741 11 inlet;
#X obj 36 502 *~;
#X obj 36 524 dac~ 1 2;
#X connect 0 0 41 0;
#X connect 1 0 41 0;
#X connect 2 0 3 0;
#X connect 3 0 41 0;
#X connect 4 0 5 0;
#X connect 5 0 41 0;
#X connect 6 0 7 0;
#X connect 7 0 41 0;
#X connect 8 0 9 0;
#X connect 9 0 41 0;
#X connect 10 0 11 0;
#X connect 11 0 31 0;
#X connect 12 0 13 0;
#X connect 13 0 41 0;
#X connect 14 0 15 0;
#X connect 15 0 41 0;
#X connect 16 0 0 0;
#X connect 17 0 1 0;
#X connect 18 0 16 0;
#X connect 19 0 17 0;
#X connect 20 0 2 0;
#X connect 21 0 4 0;
#X connect 22 0 6 0;
#X connect 23 0 8 0;
#X connect 26 0 12 0;
#X connect 27 0 14 0;
#X connect 28 0 18 0;
#X connect 28 0 19 0;
#X connect 28 0 20 0;
#X connect 28 0 21 0;
#X connect 28 0 22 0;
#X connect 28 0 23 0;
#X connect 28 0 26 0;
#X connect 28 0 27 0;
#X connect 29 0 11 0;
#X connect 30 0 33 0;
#X connect 30 0 43 0;
#X connect 30 1 32 0;
#X connect 31 0 36 0;
#X connect 31 0 30 0;
#X connect 31 0 40 0;
#X connect 31 0 48 0;
#X connect 32 0 44 0;
#X connect 32 1 35 0;
#X connect 35 0 45 0;
#X connect 35 1 38 0;
#X connect 37 0 10 0;
#X connect 38 0 46 0;
#X connect 38 1 39 0;
#X connect 39 0 47 0;
#X connect 39 1 49 0;
#X connect 41 0 56 0;
#X connect 43 0 0 1;
#X connect 44 0 1 1;
#X connect 45 0 3 1;
#X connect 46 0 5 1;
#X connect 47 0 9 1;
#X connect 48 0 41 1;
#X connect 48 0 42 0;
#X connect 49 0 50 0;
#X connect 49 1 51 0;
#X connect 50 0 13 1;
#X connect 51 0 15 1;
#X connect 52 0 29 0;
#X connect 52 0 56 1;
#X connect 52 0 53 0;
#X connect 53 0 54 0;
#X connect 55 0 37 0;
#X connect 56 0 57 0;
#X connect 56 0 57 1;
#X restore 144 240 pd chord_sweep;
#X obj 240 212 tgl 15 0 empty empty empty 17 7 0 10 -262144 -1 -1 0
1;
#X obj 100 213 hsl 128 15 0 5 0 0 empty empty empty -2 -8 0 10 -262144
-1 -1 200 1;
#X connect 0 0 6 0;
#X connect 1 0 5 0;
#X connect 2 0 7 0;
#X connect 3 0 4 0;
#X connect 9 0 8 0;
#X connect 11 0 10 0;
#X connect 12 0 10 1;
#X connect 14 0 13 1;
#X connect 15 0 13 0;
