#N canvas 323 470 450 300 10;
#X obj 42 93 hsl 128 15 0 127 0 0 empty empty empty -2 -8 0 10 -262144
-1 -1 4000 1;
#X obj 42 29 hsl 128 15 0 12 0 0 empty empty empty -2 -8 0 10 -262144
-1 -1 1900 1;
#X obj 202 93 hsl 128 15 0 127 0 0 empty empty empty -2 -8 0 10 -262144
-1 -1 1100 1;
#X obj 202 29 hsl 128 15 0 34 0 0 empty empty empty -2 -8 0 10 -262144
-1 -1 8400 1;
#X obj 199 49 s pix;
#X obj 39 49 s rout;
#X obj 39 113 s lum;
#X obj 199 113 s width;
#N canvas 1 81 450 300 mono_swell 1;
#X obj 115 173 osc~ 0.1;
#X obj 115 217 snapshot~;
#X obj 46 152 osc~ 100;
#X obj 46 192 *~;
#X obj 220 187 metro 25;
#X floatatom 115 239 5 0 0 0 - - -, f 5;
#X obj 115 258 abs;
#X obj 115 195 *~ 128;
#X obj 275 106 inlet;
#X obj 311 142 sel 1;
#X obj 311 164 1;
#X obj 311 192 s rout;
#X obj 115 280 s width;
#X obj 184 278 s lum;
#X obj 46 255 dac~ 1 2;
#X obj 46 214 *~;
#X connect 0 0 3 1;
#X connect 0 0 7 0;
#X connect 1 0 5 0;
#X connect 2 0 3 0;
#X connect 3 0 15 0;
#X connect 4 0 1 0;
#X connect 5 0 6 0;
#X connect 6 0 13 0;
#X connect 6 0 12 0;
#X connect 7 0 1 0;
#X connect 8 0 9 0;
#X connect 8 0 4 0;
#X connect 8 0 15 1;
#X connect 9 0 10 0;
#X connect 9 1 11 0;
#X connect 10 0 11 0;
#X connect 15 0 14 0;
#X connect 15 0 14 1;
#X restore 303 203 pd mono_swell;
#X obj 297 149 tgl 15 0 empty empty empty 17 7 0 10 -262144 -1 -1 0
1;
#N canvas 497 343 627 380 radid 1;
#X obj 257 43 * 128;
#X obj 261 11 inlet;
#X obj 153 13 inlet;
#X obj 127 200 *~;
#X obj 126 276 dac~ 1 2;
#X obj 76 92 osc~ 50;
#X obj 156 92 osc~ 950;
#X obj 87 135 *~;
#X obj 228 69 metro;
#X obj 228 91 random 128;
#X obj 234 150 maxlib/scale 0 127 0 1;
#X floatatom 289 68 5 0 0 0 - - -, f 5;
#X floatatom 302 182 5 0 0 0 - - -, f 5;
#X obj 184 151 s lum;
#X obj 397 67 random 34;
#X obj 153 35 s rout;
#X obj 345 103 s pix;
#X obj 397 89 maxlib/scale 0 33 0 1;
#X obj 127 222 *~;
#X floatatom 397 111 5 0 0 0 - - -, f 5;
#X obj 397 130 - 1;
#X obj 397 152 abs;
#X obj 81 234 *~;
#X connect 0 0 8 1;
#X connect 0 0 11 0;
#X connect 1 0 0 0;
#X connect 2 0 3 1;
#X connect 2 0 8 0;
#X connect 2 0 15 0;
#X connect 3 0 18 0;
#X connect 3 0 22 0;
#X connect 5 0 7 0;
#X connect 6 0 7 0;
#X connect 7 0 3 0;
#X connect 8 0 9 0;
#X connect 8 0 14 0;
#X connect 9 0 10 0;
#X connect 9 0 13 0;
#X connect 10 0 7 1;
#X connect 14 0 16 0;
#X connect 14 0 17 0;
#X connect 17 0 18 1;
#X connect 17 0 19 0;
#X connect 18 0 4 1;
#X connect 19 0 20 0;
#X connect 20 0 21 0;
#X connect 21 0 22 1;
#X connect 22 0 4 0;
#X restore 67 215 pd radid;
#X obj 74 173 tgl 15 0 empty empty empty 17 7 0 10 -262144 -1 -1 1
1;
#X obj 121 170 hsl 128 15 4 1 0 0 empty empty empty -2 -8 0 10 -262144
-1 -1 10300 1;
#X connect 0 0 6 0;
#X connect 1 0 5 0;
#X connect 2 0 7 0;
#X connect 3 0 4 0;
#X connect 9 0 8 0;
#X connect 11 0 10 0;
#X connect 12 0 10 1;
