#N canvas 328 102 724 665 10;
#X obj 26 62 4amp 1;
#X obj 116 62 4amp 2;
#X obj 276 62 4amp 4;
#X obj 186 62 4amp 3;
#X msg 468 116 4;
#X obj 463 149 s numSigs;
#X obj 290 213 i;
#X obj 293 247 4pan 1;
#X obj 355 239 + 8;
#X obj 356 270 moses 34;
#X obj 393 305 - 33;
#X floatatom 369 333 5 0 0 0 - - -, f 5;
#X obj 365 369 + 8;
#X obj 366 400 moses 34;
#X obj 403 435 - 33;
#X floatatom 379 463 5 0 0 0 - - -, f 5;
#X obj 385 499 + 8;
#X obj 386 530 moses 34;
#X obj 423 565 - 33;
#X floatatom 399 593 5 0 0 0 - - -, f 5;
#X obj 410 360 4pan 2;
#X obj 438 489 4pan 3;
#X obj 400 629 4pan 4;
#X obj 26 207 send_sigs;
#X obj 462 74 sel 1;
#X floatatom 416 115 5 0 0 0 - - -, f 5;
#X obj 27 310 outlet~;
#X obj 43 290 outlet~;
#X obj 61 270 outlet~;
#X obj 77 250 outlet~;
#X obj 293 172 spigot;
#X obj 302 147 r pix;
#X obj 456 13 r rout;
#X obj 273 15 r~ sig4;
#X obj 25 20 r~ sig1;
#X obj 104 18 r~ sig2;
#X obj 213 17 r~ sig3;
#X obj 451 46 expr ($f1 == 8 || $f1 == 20) \;;
#X connect 0 0 23 0;
#X connect 0 1 23 1;
#X connect 0 2 23 2;
#X connect 0 3 23 3;
#X connect 1 0 23 0;
#X connect 1 1 23 1;
#X connect 1 2 23 2;
#X connect 1 3 23 3;
#X connect 2 0 23 0;
#X connect 2 1 23 1;
#X connect 2 2 23 2;
#X connect 2 3 23 3;
#X connect 3 0 23 0;
#X connect 3 1 23 1;
#X connect 3 2 23 2;
#X connect 3 3 23 3;
#X connect 4 0 5 0;
#X connect 6 0 7 0;
#X connect 6 0 8 0;
#X connect 8 0 9 0;
#X connect 9 0 11 0;
#X connect 9 1 10 0;
#X connect 10 0 11 0;
#X connect 11 0 12 0;
#X connect 11 0 20 0;
#X connect 12 0 13 0;
#X connect 13 0 15 0;
#X connect 13 1 14 0;
#X connect 14 0 15 0;
#X connect 15 0 16 0;
#X connect 15 0 21 0;
#X connect 16 0 17 0;
#X connect 17 0 19 0;
#X connect 17 1 18 0;
#X connect 18 0 19 0;
#X connect 19 0 22 0;
#X connect 23 0 26 0;
#X connect 23 1 27 0;
#X connect 23 2 28 0;
#X connect 23 3 29 0;
#X connect 24 0 4 0;
#X connect 30 0 6 0;
#X connect 31 0 30 0;
#X connect 32 0 37 0;
#X connect 33 0 2 0;
#X connect 34 0 0 0;
#X connect 35 0 1 0;
#X connect 36 0 3 0;
#X connect 37 0 24 0;
#X connect 37 0 23 4;
#X connect 37 0 25 0;
#X connect 37 0 30 1;
