#N canvas 0 0 335 269 10;
#X obj 160 88 hsl 128 15 0 240 0 0 empty empty empty -2 -8 0 10 -262144
-1 -1 0 1;
#X obj 157 19 metro 250;
#X obj 157 50 counter;
#X obj 157 -5 tgl 15 0 empty empty empty 17 7 0 10 -262144 -1 -1 0
1;
#X obj 160 128 hsl 128 15 0 60000 0 0 empty empty empty -2 -8 0 10
-262144 -1 -1 0 1;
#X obj 15 51 counter;
#X obj 15 -4 tgl 15 0 empty empty empty 17 7 0 10 -262144 -1 -1 0 1
;
#X msg 71 34 60000;
#X obj 93 -48 bng 15 250 50 0 empty empty empty 17 7 0 10 -262144 -1
-1;
#X msg 92 -13 0;
#X msg 224 33 240;
#X obj 15 20 metro;
#X msg 42 -7 1;
#X floatatom 15 79 5 0 0 0 - - -;
#X floatatom 220 67 5 0 0 0 - - -;
#X msg 223 11 480;
#X msg 72 55 120000;
#X obj 161 147 hsl 128 15 0 120000 0 0 empty empty empty -2 -8 0 10
-262144 -1 -1 0 1;
#X obj 160 106 hsl 128 15 0 480 0 0 empty empty empty -2 -8 0 10 -262144
-1 -1 0 1;
#X text 69 -71 TIME TEST;
#X connect 1 0 2 0;
#X connect 2 0 0 0;
#X connect 2 0 14 0;
#X connect 2 0 18 0;
#X connect 3 0 1 0;
#X connect 5 0 4 0;
#X connect 5 0 13 0;
#X connect 5 0 17 0;
#X connect 6 0 11 0;
#X connect 7 0 5 4;
#X connect 8 0 6 0;
#X connect 8 0 3 0;
#X connect 9 0 5 4;
#X connect 9 0 2 4;
#X connect 10 0 2 4;
#X connect 11 0 5 0;
#X connect 12 0 11 1;
#X connect 15 0 2 4;
#X connect 16 0 5 4;
