#N canvas 664 350 701 417 10;
#X obj 503 109 s numSigs;
#X msg 502 86 3;
#X obj 22 67 4amp 1;
#X obj 102 70 4amp 2;
#X obj 186 75 4amp 3;
#X obj 22 158 send_sigs;
#X obj 24 317 outlet~;
#X obj 40 297 outlet~;
#X obj 58 277 outlet~;
#X obj 74 257 outlet~;
#X obj 506 57 sel 1;
#X obj 331 225 moses 34;
#X obj 257 166 i;
#X obj 376 252 - 33;
#X obj 331 200 +;
#X obj 452 203 -;
#X obj 452 228 moses 0;
#X obj 454 260 + 33;
#X floatatom 329 311 5 0 0 0 - - -, f 5;
#X floatatom 483 323 5 0 0 0 - - -, f 5;
#X obj 435 123 i;
#X obj 435 146 t b \$1;
#X obj 504 10 r rout;
#X obj 505 34 == 7;
#X obj 256 121 r pix;
#X obj 259 143 spigot;
#X obj 427 94 spigot;
#X obj 429 42 r t_pix;
#X obj 255 197 4pan 1;
#X obj 328 362 4pan 2;
#X obj 476 361 4pan 3;
#X obj 23 5 r~ sig1;
#X obj 102 3 r~ sig2;
#X obj 185 3 r~ sig3;
#X connect 1 0 0 0;
#X connect 2 0 5 0;
#X connect 2 1 5 1;
#X connect 2 2 5 2;
#X connect 2 3 5 3;
#X connect 3 0 5 0;
#X connect 3 1 5 1;
#X connect 3 2 5 2;
#X connect 3 3 5 3;
#X connect 4 0 5 0;
#X connect 4 1 5 1;
#X connect 4 2 5 2;
#X connect 4 3 5 3;
#X connect 5 0 6 0;
#X connect 5 1 7 0;
#X connect 5 2 8 0;
#X connect 5 3 9 0;
#X connect 10 0 1 0;
#X connect 11 0 18 0;
#X connect 11 1 13 0;
#X connect 12 0 14 0;
#X connect 12 0 15 0;
#X connect 12 0 28 0;
#X connect 13 0 18 0;
#X connect 14 0 11 0;
#X connect 15 0 16 0;
#X connect 16 0 17 0;
#X connect 16 1 19 0;
#X connect 17 0 19 0;
#X connect 18 0 29 0;
#X connect 19 0 30 0;
#X connect 20 0 21 0;
#X connect 21 0 15 0;
#X connect 21 0 14 0;
#X connect 21 1 15 1;
#X connect 21 1 14 1;
#X connect 22 0 23 0;
#X connect 23 0 10 0;
#X connect 23 0 5 4;
#X connect 23 0 25 1;
#X connect 23 0 26 1;
#X connect 24 0 25 0;
#X connect 25 0 12 0;
#X connect 26 0 20 0;
#X connect 27 0 26 0;
#X connect 31 0 2 0;
#X connect 32 0 3 0;
#X connect 33 0 4 0;
