#N canvas 180 309 805 458 10;
#X obj 12 57 4amp 1;
#X obj 92 60 4amp 2;
#X obj 176 65 4amp 3;
#X obj 500 166 + 11;
#X obj 500 191 moses 34;
#X obj 545 218 - 33;
#X floatatom 547 249 5 0 0 0 - - -, f 5;
#X obj 545 135 s numSigs;
#X obj 550 296 + 11;
#X obj 550 321 moses 34;
#X obj 595 348 - 33;
#X floatatom 597 379 5 0 0 0 - - -, f 5;
#X obj 426 132 i;
#X msg 551 96 3;
#X obj 554 47 sel 1;
#X obj 12 148 send_sigs;
#X obj 14 307 outlet~;
#X obj 30 287 outlet~;
#X obj 48 267 outlet~;
#X obj 64 247 outlet~;
#X obj 593 273 4pan 2;
#X obj 424 163 4pan 1;
#X obj 598 409 4pan 3;
#X obj 555 -14 r rout;
#X obj 429 96 spigot;
#X obj 424 74 r pix;
#X floatatom 500 130 5 0 0 0 - - -, f 5;
#X obj 25 20 r~ sig1;
#X obj 104 18 r~ sig2;
#X obj 213 17 r~ sig3;
#X obj 554 15 expr ($f1 == 6 || $f1 == 19) \;;
#X connect 0 0 15 0;
#X connect 0 1 15 1;
#X connect 0 2 15 2;
#X connect 0 3 15 3;
#X connect 1 0 15 0;
#X connect 1 1 15 1;
#X connect 1 2 15 2;
#X connect 1 3 15 3;
#X connect 2 0 15 0;
#X connect 2 1 15 1;
#X connect 2 2 15 2;
#X connect 2 3 15 3;
#X connect 3 0 4 0;
#X connect 4 0 6 0;
#X connect 4 1 5 0;
#X connect 5 0 6 0;
#X connect 6 0 8 0;
#X connect 6 0 20 0;
#X connect 8 0 9 0;
#X connect 9 0 11 0;
#X connect 9 1 10 0;
#X connect 10 0 11 0;
#X connect 11 0 22 0;
#X connect 12 0 3 0;
#X connect 12 0 21 0;
#X connect 13 0 7 0;
#X connect 14 0 13 0;
#X connect 15 0 16 0;
#X connect 15 1 17 0;
#X connect 15 2 18 0;
#X connect 15 3 19 0;
#X connect 23 0 30 0;
#X connect 24 0 12 0;
#X connect 24 0 26 0;
#X connect 25 0 24 0;
#X connect 27 0 0 0;
#X connect 28 0 1 0;
#X connect 29 0 2 0;
#X connect 30 0 14 0;
#X connect 30 0 24 1;
#X connect 30 0 15 4;
