#N canvas 586 229 661 368 10;
#X obj 76 81 *~ 1;
#X floatatom 543 199 5 0 0 0 - - -, f 5;
#X obj 477 176 i;
#X obj 477 198 s lum;
#X obj 310 272 s pix;
#X obj 315 239 i;
#X obj 474 81 metro 128;
#X obj 485 41 tgl 15 0 empty empty empty 17 7 0 10 -262144 -1 -1 1
1;
#X obj 166 81 *~ 1;
#X obj 76 103 spigot~;
#X obj 76 125 outlet~;
#X obj 166 103 spigot~;
#X obj 166 125 outlet~;
#X obj 473 123 random 4;
#X obj 477 154 maxlib/scale 0 3 0 127;
#X obj 303 149 random 12;
#X obj 309 189 maxlib/scale 0 11 0 33;
#X obj 286 71 *~ 1;
#X obj 286 93 spigot~;
#X obj 286 115 outlet~;
#X obj 76 19 osc~ 4000;
#X obj 166 19 osc~ 5333.33;
#X obj 286 9 osc~ 6666.67;
#X connect 0 0 9 0;
#X connect 2 0 3 0;
#X connect 2 0 1 0;
#X connect 5 0 4 0;
#X connect 6 0 13 0;
#X connect 6 0 15 0;
#X connect 7 0 6 0;
#X connect 8 0 11 0;
#X connect 9 0 10 0;
#X connect 11 0 12 0;
#X connect 13 0 14 0;
#X connect 14 0 2 0;
#X connect 15 0 16 0;
#X connect 16 0 5 0;
#X connect 17 0 18 0;
#X connect 18 0 19 0;
#X connect 20 0 0 0;
#X connect 21 0 8 0;
#X connect 22 0 17 0;
