#N canvas 1272 715 949 615 10;
#X obj -18 -54 inlet;
#X obj -18 37 moses 8;
#X obj 211 69 moses 17;
#X obj 436 94 moses 25;
#X obj 645 184 pancalc 25 33;
#X obj -18 249 pancalc 0 7;
#X obj 211 207 pancalc 8 16;
#X obj 436 248 pancalc 17 24;
#X obj -18 271 s vol1-\$1;
#X obj 211 231 s vol2-\$1;
#X obj 436 270 s vol3-\$1;
#X obj 645 208 s vol4-\$1;
#X msg -4 92 1;
#X obj 3 135 s vol2-\$1;
#X obj 72 129 pancalc 8 16;
#X obj 141 153 s vol3-\$1;
#X floatatom 17 4 5 0 0 0 - - -;
#X obj 41 91 + 9;
#X msg 221 106 1;
#X obj 266 105 + 9;
#X obj 297 143 pancalc 17 24;
#X obj 228 149 s vol3-\$1;
#X obj 372 216 s vol4-\$1;
#X msg 457 176 1;
#X obj 517 165 + 9;
#X obj 593 271 s vol4-\$1;
#X obj 464 219 s vol4-\$1;
#X obj 518 198 pancalc 25 33;
#X floatatom 333 121 5 0 0 0 - - -;
#X floatatom 119 116 5 0 0 0 - - -;
#X msg 637 116 1;
#X obj 697 105 + 9;
#X obj 698 138 pancalc 0 7;
#X obj 644 159 s vol1-\$1;
#X obj 766 210 s vol2-\$1;
#X connect 0 0 1 0;
#X connect 1 0 5 0;
#X connect 1 0 12 0;
#X connect 1 0 17 0;
#X connect 1 1 2 0;
#X connect 2 0 6 0;
#X connect 2 0 18 0;
#X connect 2 0 19 0;
#X connect 2 1 3 0;
#X connect 3 0 7 0;
#X connect 3 0 23 0;
#X connect 3 0 24 0;
#X connect 3 1 4 0;
#X connect 3 1 30 0;
#X connect 3 1 31 0;
#X connect 4 0 11 0;
#X connect 5 0 8 0;
#X connect 6 0 9 0;
#X connect 7 0 10 0;
#X connect 12 0 13 0;
#X connect 14 1 15 0;
#X connect 16 0 1 0;
#X connect 17 0 14 0;
#X connect 17 0 29 0;
#X connect 18 0 21 0;
#X connect 19 0 20 0;
#X connect 19 0 28 0;
#X connect 20 1 22 0;
#X connect 23 0 26 0;
#X connect 24 0 27 0;
#X connect 27 1 25 0;
#X connect 30 0 33 0;
#X connect 31 0 32 0;
#X connect 32 1 34 0;
