#N canvas 484 217 582 550 10;
#X obj 22 67 4amp 1;
#X obj 102 70 4amp 2;
#X obj 186 75 4amp 3;
#X obj 344 211 + 11;
#X obj 344 236 moses 34;
#X obj 389 263 - 33;
#X floatatom 391 294 5 0 0 0 - - -, f 5;
#X obj 399 153 s numSigs;
#X obj 394 341 + 11;
#X obj 394 366 moses 34;
#X obj 439 393 - 33;
#X floatatom 441 424 5 0 0 0 - - -, f 5;
#X obj 277 176 i;
#X msg 405 114 3;
#X obj 398 73 sel 1;
#X obj 22 158 send_sigs;
#X obj 24 317 outlet~;
#X obj 40 297 outlet~;
#X obj 58 277 outlet~;
#X obj 74 257 outlet~;
#X obj 255 226 tripan 1;
#X obj 436 321 tripan 2;
#X obj 451 463 tripan 3;
#X obj 396 44 == 12;
#X obj 392 -1 r rout;
#X obj 273 141 spigot;
#X obj 272 112 r pix;
#X obj 25 20 r~ sig1;
#X obj 104 18 r~ sig2;
#X obj 213 17 r~ sig3;
#X connect 0 0 15 0;
#X connect 0 1 15 1;
#X connect 0 2 15 2;
#X connect 0 3 15 3;
#X connect 1 0 15 0;
#X connect 1 1 15 1;
#X connect 1 2 15 2;
#X connect 1 3 15 3;
#X connect 2 0 15 0;
#X connect 2 1 15 1;
#X connect 2 2 15 2;
#X connect 2 3 15 3;
#X connect 3 0 4 0;
#X connect 4 0 6 0;
#X connect 4 1 5 0;
#X connect 5 0 6 0;
#X connect 6 0 8 0;
#X connect 6 0 21 0;
#X connect 8 0 9 0;
#X connect 9 0 11 0;
#X connect 9 1 10 0;
#X connect 10 0 11 0;
#X connect 11 0 22 0;
#X connect 12 0 3 0;
#X connect 12 0 20 0;
#X connect 13 0 7 0;
#X connect 14 0 13 0;
#X connect 15 0 16 0;
#X connect 15 1 17 0;
#X connect 15 2 18 0;
#X connect 15 3 19 0;
#X connect 23 0 14 0;
#X connect 23 0 15 4;
#X connect 23 0 25 1;
#X connect 24 0 23 0;
#X connect 25 0 12 0;
#X connect 26 0 25 0;
#X connect 27 0 0 0;
#X connect 28 0 1 0;
#X connect 29 0 2 0;
