#N canvas 340 581 524 395 10;
#X obj 133 -1 inlet;
#X obj 292 177 s vol4-\$1;
#X obj 247 222 s vol3-\$1;
#X obj 202 264 s vol2-\$1;
#X obj 133 30 moses 11;
#X obj 172 60 moses 22;
#X obj 133 242 pancalc 0 10;
#X obj 172 198 pancalc 11 21;
#X obj 217 155 pancalc 22 33;
#X msg 100 84 0;
#X obj 69 138 s vol4-\$1;
#X obj 5 141 s vol3-\$1;
#X msg 157 116 0;
#X obj 147 146 s vol4-\$1;
#X connect 0 0 4 0;
#X connect 4 0 6 0;
#X connect 4 0 9 0;
#X connect 4 1 5 0;
#X connect 5 0 7 0;
#X connect 5 0 12 0;
#X connect 5 1 8 0;
#X connect 6 1 3 0;
#X connect 7 1 2 0;
#X connect 8 1 1 0;
#X connect 9 0 10 0;
#X connect 9 0 11 0;
#X connect 12 0 13 0;
